<svg xmlns="http://www.w3.org/2000/svg" viewBox="0 0 301.89 301.89"><defs><style>.cls-1{fill:none;stroke:#3ea2d1;stroke-linecap:round;stroke-linejoin:round;stroke-width:10px;}</style></defs><g id="Livello_2" data-name="Livello 2"><g id="Layer_1" data-name="Layer 1"><line class="cls-1" x1="34.32" y1="5" x2="34.32" y2="296.89"/><line class="cls-1" x1="5" y1="267.28" x2="296.89" y2="267.28"/><path class="cls-1" d="M138.35,123c-4.93-5.65-12.62-8.45-20.11-8.38s-14.78,2.78-21.18,6.68c-8.72,5.31-16.25,13.28-18.92,23.13s.46,21.58,9,27.2c6.38,4.21,14.42,4.72,22.06,4.89,21.64.47,43.28.07,64.92-.13,10.82-.1,21.64-.14,32.46,0,10.23.13,19.92.74,29.8-2.63a31.24,31.24,0,0,0,9.46-4.87,21.7,21.7,0,0,0-.92-34.64c-4.12-2.93-9.14-4.34-14.12-5.22-9.67-1.71-20.08-.94-28.48,4.37"/><path class="cls-1" d="M127.83,114.63A43.5,43.5,0,0,1,146,95.05c17-9.43,42.21-7.3,56.86,5.65,7.39,6.53,12.71,15.69,13.47,25.52"/></g></g></svg>