<svg xmlns="http://www.w3.org/2000/svg" viewBox="0 0 260.31 260.31"><defs><style>.cls-1{fill:none;stroke:#3ea2d1;stroke-linecap:round;stroke-linejoin:round;stroke-width:10px;}.cls-2{fill:#3ea2d1;}</style></defs><g id="Livello_2" data-name="Livello 2"><g id="Layer_1" data-name="Layer 1"><path class="cls-1" d="M110.9,216.8A105.9,105.9,0,1,0,5,110.9,105.9,105.9,0,0,0,110.9,216.8Z"/><path class="cls-1" d="M255.31,255.31l-66.2-65.85"/><path class="cls-2" d="M92.08,144.31a6.06,6.06,0,0,1-1.62-4.47V80.4A6.1,6.1,0,0,1,97,73.91a6.52,6.52,0,0,1,4.82,1.77,6.4,6.4,0,0,1,1.78,4.72v54.78h28.5q6.09,0,6.09,5.37t-6.09,5.38H96.65A6.19,6.19,0,0,1,92.08,144.31Z"/></g></g></svg>