<?xml version="1.0" encoding="UTF-8" standalone="no"?>
<svg
   height="26"
   width="26"
   version="1.0"
   id="svg10"
   sodipodi:docname="info-layer.svg"
   inkscape:version="1.1.1 (3bf5ae0d25, 2021-09-20)"
   xmlns:inkscape="http://www.inkscape.org/namespaces/inkscape"
   xmlns:sodipodi="http://sodipodi.sourceforge.net/DTD/sodipodi-0.dtd"
   xmlns="http://www.w3.org/2000/svg"
   xmlns:svg="http://www.w3.org/2000/svg"
   viewBox="0 0 26 26">
  <defs
     id="defs14" />
  <sodipodi:namedview
     id="namedview12"
     pagecolor="#ffffff"
     bordercolor="#666666"
     borderopacity="1.0"
     inkscape:pageshadow="2"
     inkscape:pageopacity="0.0"
     inkscape:pagecheckerboard="0"
     showgrid="false"
     inkscape:zoom="17.975"
     inkscape:cx="11.738526"
     inkscape:cy="7.0375522"
     inkscape:window-width="1280"
     inkscape:window-height="961"
     inkscape:window-x="-8"
     inkscape:window-y="-8"
     inkscape:window-maximized="1"
     inkscape:current-layer="g8" />
  <g
     fill="#4b4b4b"
     id="g8"
     transform="matrix(0.44024821,0,0,0.44024821,81.16401,81.16401)">
    <path
       id="path2"
       style="stroke-width:0.448848;fill:#104190"
       d="m -154.72576,-183.9036 c -16.10468,0 -29.17669,13.07202 -29.17669,29.17669 0,16.10469 13.07201,29.17668 29.17669,29.17668 16.10468,0 29.17265,-13.07199 29.17265,-29.17668 0,-16.10467 -13.06797,-29.17669 -29.17265,-29.17669 z m 0,4.48965 c 13.62704,0 24.68703,11.05999 24.68703,24.68704 0,13.62703 -11.05999,24.68702 -24.68703,24.68702 -13.62704,0 -24.68705,-11.05999 -24.68705,-24.68702 0,-13.62705 11.06001,-24.68704 24.68705,-24.68704 z m -0.56374,6.73246 a 5.0494936,5.0496484 0 0 0 -5.04934,5.04935 5.0494936,5.0496484 0 0 0 10.0987,0 5.0494936,5.0496484 0 0 0 -5.04936,-5.04935 z m 5.35135,13.46493 -13.76691,0.4993 v 2.27502 c 2.00232,-0.0651 4.84358,-0.41017 4.82788,1.77975 v 13.83135 c -0.10997,1.09519 -0.46365,1.6704 -1.94082,1.71533 l -2.4683,0.0443 v 2.29916 h 17.5358 v -2.29916 l -2.24683,-0.0443 c -1.39861,-0.14364 -1.97176,-0.48998 -1.94082,-1.71533 z" />
  </g>
</svg>
