<svg width="26" height="20" viewBox="0 0 26 20" fill="none" xmlns="http://www.w3.org/2000/svg">
<path d="M12.5 0.5C11.6716 0.5 11 1.17157 11 2C11 2.82843 11.6716 3.5 12.5 3.5V0.5ZM23.5 3.5C24.3284 3.5 25 2.82843 25 2C25 1.17157 24.3284 0.5 23.5 0.5V3.5ZM12.5 3.5H23.5V0.5H12.5V3.5Z" fill="#104190"/>
<path d="M2 8.5C1.17157 8.5 0.5 9.17157 0.5 10C0.5 10.8284 1.17157 11.5 2 11.5L2 8.5ZM24 11.5C24.8284 11.5 25.5 10.8284 25.5 10C25.5 9.17157 24.8284 8.5 24 8.5L24 11.5ZM2 11.5L24 11.5L24 8.5L2 8.5L2 11.5Z" fill="#104190"/>
<path d="M8 16.5C7.17157 16.5 6.5 17.1716 6.5 18C6.5 18.8284 7.17157 19.5 8 19.5L8 16.5ZM24 19.5C24.8284 19.5 25.5 18.8284 25.5 18C25.5 17.1716 24.8284 16.5 24 16.5L24 19.5ZM8 19.5L24 19.5L24 16.5L8 16.5L8 19.5Z" fill="#104190"/>
</svg>
