<svg width="88" height="88" viewBox="0 0 88 88" fill="none" xmlns="http://www.w3.org/2000/svg">
<circle cx="44" cy="44" r="44" fill="#104190"/>
<path d="M44.1482 48.9073C46.8161 48.9073 48.9789 46.7446 48.9789 44.0767C48.9789 41.4088 46.8161 39.2461 44.1482 39.2461C41.4804 39.2461 39.3176 41.4088 39.3176 44.0767C39.3176 46.7446 41.4804 48.9073 44.1482 48.9073Z" fill="#104190" stroke="white" stroke-width="2" stroke-linecap="round" stroke-linejoin="round"/>
<path d="M27.0717 61.1525C22.5437 56.6231 20 50.4808 20 44.0763C20 37.6717 22.5437 31.5294 27.0717 27" fill="#104190"/>
<path d="M54.3889 33.8353C55.7363 35.1812 56.8052 36.7795 57.5345 38.5388C58.2638 40.2981 58.6392 42.1839 58.6392 44.0883C58.6392 45.9928 58.2638 47.8786 57.5345 49.6378C56.8052 51.3971 55.7363 52.9954 54.3889 54.3413M33.907 54.3172C32.5596 52.9713 31.4907 51.373 30.7614 49.6137C30.0321 47.8544 29.6568 45.9686 29.6568 44.0642C29.6568 42.1597 30.0321 40.2739 30.7614 38.5147C31.4907 36.7554 32.5596 35.1571 33.907 33.8112M61.2242 27C65.7522 31.5294 68.2959 37.6717 68.2959 44.0762C68.2959 50.4808 65.7522 56.6231 61.2242 61.1525M27.0717 61.1525C22.5437 56.6231 20 50.4808 20 44.0762C20 37.6717 22.5437 31.5294 27.0717 27" stroke="white" stroke-width="2" stroke-linecap="round" stroke-linejoin="round"/>
</svg>
