<svg width="88" height="88" viewBox="0 0 88 88" fill="none" xmlns="http://www.w3.org/2000/svg">
<circle cx="44" cy="44" r="44" fill="#7FBBDB"/>
<path d="M50.8333 58.3383C49.4136 60.1893 47.6289 61.6795 45.608 62.7018C43.5871 63.724 41.3801 64.2527 39.1459 64.25C35.129 64.25 31.2766 62.5379 28.4362 59.4902C25.5958 56.4426 24 52.3091 24 47.9991C23.9972 45.613 24.4852 43.2556 25.4291 41.0951C26.3729 38.9345 27.7495 37.0241 29.4606 35.5L50.8333 58.3383Z" stroke="white" stroke-width="2" stroke-miterlimit="10" stroke-linecap="round" stroke-linejoin="round"/>
<path d="M41.25 47L44.125 44.125" stroke="white" stroke-width="2" stroke-miterlimit="10" stroke-linecap="round" stroke-linejoin="round"/>
<path d="M47.9582 45.0833C50.6045 45.0833 52.7498 42.938 52.7498 40.2917C52.7498 37.6453 50.6045 35.5 47.9582 35.5C45.3118 35.5 43.1665 37.6453 43.1665 40.2917C43.1665 42.938 45.3118 45.0833 47.9582 45.0833Z" stroke="white" stroke-width="2" stroke-miterlimit="10" stroke-linecap="round" stroke-linejoin="round"/>
<path d="M47 29.75C50.05 29.75 52.9751 30.9616 55.1318 33.1183C57.2884 35.2749 58.5 38.2 58.5 41.25" stroke="white" stroke-width="2" stroke-miterlimit="10" stroke-linecap="round" stroke-linejoin="round"/>
<path d="M47 24C51.5756 24.0014 55.9634 25.8194 59.1983 29.0543C62.4332 32.2892 64.2503 36.676 64.25 41.25" stroke="white" stroke-width="2" stroke-miterlimit="10" stroke-linecap="round" stroke-linejoin="round"/>
</svg>
