<svg width="28" height="28" viewBox="0 0 28 28" fill="none" xmlns="http://www.w3.org/2000/svg">
<path d="M14.0002 26.8569C21.101 26.8569 26.8574 21.1005 26.8574 13.9997C26.8574 6.89892 21.101 1.14258 14.0002 1.14258C6.89941 1.14258 1.14307 6.89892 1.14307 13.9997C1.14307 21.1005 6.89941 26.8569 14.0002 26.8569Z" stroke="#104190" stroke-width="1.5" stroke-miterlimit="10"/>
<path d="M7.32764 3.74805C8.83199 4.2276 10.4137 4.41976 11.9896 4.31442C12.7034 4.26588 13.4148 4.15746 14.1286 4.18901C15.7641 4.26102 17.268 5.05719 18.707 5.83394C19.1032 6.04754 19.5677 6.43106 19.3956 6.84694C19.2998 7.07835 19.035 7.19648 18.9043 7.41332C18.711 7.72968 18.8629 8.13019 18.9287 8.4951C18.9944 8.86001 18.8548 9.35519 18.4836 9.36004C18.3407 9.36004 18.21 9.28399 18.0719 9.24839C17.4467 9.08656 16.9578 9.77026 16.6768 10.3496L16.041 11.662C15.9748 11.8284 15.8725 11.9781 15.7413 12.1005C15.3986 12.374 14.8919 12.2065 14.5054 12.0002C14.1189 11.7938 13.6755 11.5511 13.2662 11.7097C12.8326 11.878 12.6766 12.4476 12.8147 12.891C12.9527 13.3344 13.3019 13.6767 13.6365 13.9963C13.9881 14.3288 14.3495 14.663 14.7831 14.879C15.2167 15.095 15.7405 15.18 16.1896 14.9963C16.4137 14.9041 16.6078 14.7536 16.8303 14.6549C17.1892 14.4995 17.5944 14.5011 17.985 14.5189C19.0448 14.5667 20.219 14.7746 20.8548 15.6201C21.1553 16.0206 21.2942 16.5158 21.5329 16.9552C21.7717 17.3945 22.1769 17.808 22.6787 17.8128C22.8533 17.8128 23.032 17.7659 23.2009 17.8128C23.4753 17.8881 23.6288 18.2052 23.5988 18.4868C23.5687 18.7684 23.3974 19.0168 23.2049 19.2255C22.8437 19.6175 22.3946 19.9188 21.8943 20.105C21.744 20.1609 21.5808 20.2127 21.4818 20.3373C21.3063 20.559 21.416 20.8769 21.4282 21.1585C21.4509 21.6666 21.1318 22.1197 20.8272 22.5283L18.0857 26.2074" stroke="#104190" stroke-width="1.5" stroke-miterlimit="10" stroke-linecap="round"/>
<path d="M15.5772 26.5323C15.1396 24.9427 16.0564 23.3112 16.1115 21.6579C16.1261 21.4792 16.1038 21.2993 16.046 21.1296C15.8472 20.6312 15.221 20.4959 14.8065 20.1585C13.9887 19.4949 14.1277 18.2258 13.7899 17.2224C13.3147 15.8148 11.8891 14.9837 10.5155 14.4337C10.2719 14.3362 10.0195 14.2388 9.83186 14.0552C9.59946 13.8289 9.49643 13.5036 9.40219 13.1927L8.85353 11.3889C8.82567 11.2541 8.76029 11.13 8.66505 11.0313C8.51331 10.9033 8.29209 10.9234 8.09403 10.9339C7.48946 10.9677 6.82979 10.8195 6.44245 10.3501C6.26196 10.131 6.15654 9.86045 6.05352 9.59471C5.80514 8.95612 5.55357 8.30625 5.53361 7.61612C5.52083 7.1877 5.5975 6.74802 5.4777 6.33651C5.40236 6.09188 5.26181 5.87282 5.07139 5.70325C4.88098 5.53369 4.64802 5.42014 4.39795 5.375" stroke="#104190" stroke-width="1.5" stroke-miterlimit="10" stroke-linecap="round"/>
<path d="M21.6895 3.74805C21.5227 4.39482 21.924 5.03674 22.0215 5.69645C22.1344 6.45722 21.8483 7.29479 22.2117 7.97228C22.3631 8.23079 22.5705 8.45183 22.8186 8.61905C23.6978 9.26017 24.7978 9.53504 25.8809 9.607" stroke="#104190" stroke-width="1.5" stroke-miterlimit="10" stroke-linecap="round"/>
</svg>
