<svg width="18" height="14" viewBox="0 0 18 14" fill="none" xmlns="http://www.w3.org/2000/svg">
<path d="M6.002 13.144C4.79 13.144 3.734 12.886 2.834 12.37C1.934 11.842 1.244 11.092 0.764 10.12C0.284 9.136 0.044 7.978 0.044 6.646C0.044 5.326 0.284 4.18 0.764 3.208C1.244 2.224 1.934 1.474 2.834 0.957999C3.734 0.429999 4.79 0.165999 6.002 0.165999C6.794 0.165999 7.544 0.291999 8.252 0.543999C8.96 0.783999 9.578 1.138 10.106 1.606C10.334 1.786 10.448 2.026 10.448 2.326C10.448 2.542 10.388 2.728 10.268 2.884C10.148 3.028 10.004 3.1 9.836 3.1C9.632 3.1 9.434 3.022 9.242 2.866C8.666 2.434 8.138 2.134 7.658 1.966C7.19 1.786 6.656 1.696 6.056 1.696C4.736 1.696 3.722 2.122 3.014 2.974C2.306 3.826 1.952 5.05 1.952 6.646C1.952 8.254 2.306 9.484 3.014 10.336C3.722 11.188 4.736 11.614 6.056 11.614C6.632 11.614 7.154 11.524 7.622 11.344C8.102 11.164 8.642 10.864 9.242 10.444C9.482 10.288 9.68 10.21 9.836 10.21C10.004 10.21 10.148 10.288 10.268 10.444C10.388 10.588 10.448 10.768 10.448 10.984C10.448 11.284 10.334 11.524 10.106 11.704C9.578 12.172 8.96 12.532 8.252 12.784C7.544 13.024 6.794 13.144 6.002 13.144ZM14.4756 5.494C13.9836 5.494 13.5336 5.38 13.1256 5.152C12.7176 4.924 12.3936 4.612 12.1536 4.216C11.9256 3.808 11.8116 3.358 11.8116 2.866C11.8116 2.362 11.9256 1.912 12.1536 1.516C12.3936 1.108 12.7176 0.789999 13.1256 0.561999C13.5336 0.333999 13.9836 0.219999 14.4756 0.219999C14.9676 0.219999 15.4116 0.333999 15.8076 0.561999C16.2156 0.789999 16.5336 1.108 16.7616 1.516C17.0016 1.912 17.1216 2.362 17.1216 2.866C17.1216 3.358 17.0016 3.808 16.7616 4.216C16.5336 4.612 16.2156 4.924 15.8076 5.152C15.4116 5.38 14.9676 5.494 14.4756 5.494ZM14.4756 4.432C14.9076 4.432 15.2616 4.288 15.5376 4C15.8256 3.7 15.9696 3.322 15.9696 2.866C15.9696 2.41 15.8256 2.038 15.5376 1.75C15.2616 1.45 14.9076 1.3 14.4756 1.3C14.0436 1.3 13.6836 1.45 13.3956 1.75C13.1076 2.038 12.9636 2.41 12.9636 2.866C12.9636 3.322 13.1076 3.7 13.3956 4C13.6836 4.288 14.0436 4.432 14.4756 4.432Z" fill="#ADADAD"/>
</svg>
