<svg width="24" height="20" viewBox="0 0 24 20" fill="none" xmlns="http://www.w3.org/2000/svg">
<path d="M11.9997 14C14.2054 14 16 12.5054 16 10.6686C16 8.89901 11.9705 1.40494 11.7988 1.08724C11.7843 1.06008 11.7622 1.03748 11.735 1.02206C11.7079 1.00664 11.6768 0.999027 11.6454 1.0001C11.614 1.00117 11.5836 1.01089 11.5576 1.02812C11.5316 1.04536 11.5112 1.0694 11.4986 1.09749C11.3556 1.4152 8 8.9047 8 10.6686C8 12.5054 9.79458 14 11.9997 14Z" stroke="#ADADAD" stroke-miterlimit="10" stroke-linecap="round"/>
<path d="M17.7462 13C18.5368 13.4119 19 13.9138 19 14.4542C19 15.8601 15.8665 17 12.0008 17C8.13518 17 5 15.8601 5 14.4542C5 13.9113 5.46379 13.4119 6.25385 13" stroke="#ADADAD" stroke-miterlimit="10" stroke-linecap="round"/>
<path d="M21.2417 14C22.3543 14.5068 23 15.1108 23 15.7589C23 17.5488 18.0753 19 11.9997 19C5.92413 19 1 17.5488 1 15.7589C1 15.1108 1.64574 14.5068 2.75828 14" stroke="#ADADAD" stroke-miterlimit="10" stroke-linecap="round"/>
</svg>
