<svg xmlns="http://www.w3.org/2000/svg" viewBox="0 0 260.31 260.31"><defs><style>.cls-1{fill:none;stroke:#3ea2d1;stroke-linecap:round;stroke-linejoin:round;stroke-width:10px;}.cls-2{fill:#3ea2d1;}</style></defs><g id="Livello_2" data-name="Livello 2"><g id="Layer_1" data-name="Layer 1"><path class="cls-1" d="M110.9,216.8A105.9,105.9,0,1,0,5,110.9,105.9,105.9,0,0,0,110.9,216.8Z"/><path class="cls-1" d="M255.31,255.31l-66.2-65.85"/><path class="cls-2" d="M144,75.68a6.49,6.49,0,0,1,1.73,4.72v60a6,6,0,0,1-1.63,4.46,5.73,5.73,0,0,1-4.26,1.63,5.41,5.41,0,0,1-4.16-1.63,6.26,6.26,0,0,1-1.52-4.46V98.66l-17.24,32.66a10.27,10.27,0,0,1-2.64,3.3,5.42,5.42,0,0,1-3.35,1.06,5.6,5.6,0,0,1-3.35-1,9.38,9.38,0,0,1-2.63-3.35L87.62,99.16v41.29a6.15,6.15,0,0,1-1.57,4.41,5.49,5.49,0,0,1-4.21,1.68,5.39,5.39,0,0,1-4.16-1.63,6.22,6.22,0,0,1-1.52-4.46v-60a6.58,6.58,0,0,1,1.67-4.72,5.92,5.92,0,0,1,4.51-1.77q4,0,6.19,4.36l22.52,42.91,22.42-42.91c1.49-2.91,3.48-4.36,6-4.36A6.08,6.08,0,0,1,144,75.68Z"/></g></g></svg>