<?xml version="1.0" encoding="utf-8"?>
<!-- Generator: Adobe Illustrator 19.1.0, SVG Export Plug-In . SVG Version: 6.00 Build 0)  -->
<svg version="1.1" id="Layer_1" xmlns="http://www.w3.org/2000/svg" xmlns:xlink="http://www.w3.org/1999/xlink" x="0px" y="0px"
	 viewBox="0 0 64 64" enable-background="new 0 0 64 64" xml:space="preserve">

	<path d="M60.125,25.3330994h-1.0849991v-7.4433994c0-2.1444998-1.7383003-3.8896999-3.875-3.8896999H3.8750007
		c-1.0214999,0-2.0215001,0.4160995-2.7402999,1.1407003c-0.7314,0.7342997-1.1346999,1.7109003-1.1346999,2.7489996v28.2207012
		c0,1.0380974,0.4033,2.0145988,1.1328,2.747097C1.8535007,49.5839996,2.8535008,50,3.8750007,50h51.2900009
		c2.1366997,0,3.875-1.7450981,3.875-3.8895988v-7.4434013H60.125c2.1366997,0,3.875-1.7450981,3.875-3.8905983v-5.552702
		C64,27.0781994,62.2616997,25.3330994,60.125,25.3330994z M62,34.7764015c0,1.0429993-0.8409004,1.8905983-1.875,1.8905983
		h-2.0849991c-0.5527,0-1,0.4473-1,1v8.4434013c0,1.0419998-0.8408012,1.8895988-1.875,1.8895988H3.8750007
		c-0.4932001,0-0.9746001-0.2010994-1.3243001-0.5527c-0.3495998-0.3516006-0.5506999-0.8389015-0.5506999-1.3368988V17.8896999
		c0-0.4981003,0.2011001-0.9853992,0.5527-1.3388996C2.9004006,16.2012005,3.3818007,16,3.8750007,16h51.2900009
		c1.0341988,0,1.875,0.8477001,1.875,1.8896999v8.4433994c0,0.5527,0.4473,1,1,1H60.125
		c1.0340996,0,1.875,0.8476009,1.875,1.8906002V34.7764015z"/>
	<path d="M37,31.0009995h-6.0009995V25c0-0.5527-0.4473-1-1-1s-1,0.4473-1,1v6.0009995H23c-0.5527992,0-1,0.4473-1,1
		c0,0.5527992,0.4472008,1,1,1h5.9990005V39c0,0.5527992,0.4473,1,1,1s1-0.4472008,1-1v-5.9990005H37c0.5527,0,1-0.4472008,1-1
		C38,31.4482994,37.5527,31.0009995,37,31.0009995z"/>

</svg>
