<svg width="22" height="11" viewBox="0 0 22 11" fill="none" xmlns="http://www.w3.org/2000/svg">
<path d="M21 1C19.9963 1 19.4593 1.43347 19.0285 1.77869C18.6382 2.09471 18.3293 2.34454 17.666 2.34454C17.0028 2.34454 16.6945 2.09471 16.3035 1.77869C15.8721 1.43023 15.3364 1 14.3327 1C13.329 1 12.7927 1.43347 12.3619 1.77869C11.9709 2.09471 11.662 2.34454 10.9994 2.34454C10.3367 2.34454 10.0279 2.09471 9.63685 1.77869C9.20605 1.43023 8.66976 1 7.66603 1C6.66231 1 6.12665 1.43347 5.69522 1.77869C5.30485 2.09471 4.99596 2.34454 4.33333 2.34454C3.67071 2.34454 3.36183 2.09471 2.97082 1.77869C2.54002 1.43023 2.00373 1 1 1" stroke="#ADADAD" stroke-linecap="round" stroke-linejoin="round"/>
<path d="M21 4.86572C19.9963 4.86572 19.4593 5.24501 19.0285 5.54708C18.6382 5.82359 18.3293 6.04219 17.666 6.04219C17.0028 6.04219 16.6945 5.82359 16.3035 5.54708C15.8721 5.24217 15.3364 4.86572 14.3327 4.86572C13.329 4.86572 12.7927 5.24501 12.3619 5.54708C11.9709 5.82359 11.662 6.04219 10.9994 6.04219C10.3367 6.04219 10.0279 5.82359 9.63685 5.54708C9.20605 5.24217 8.66976 4.86572 7.66603 4.86572C6.66231 4.86572 6.12665 5.24501 5.69522 5.54708C5.30485 5.82359 4.99596 6.04219 4.33333 6.04219C3.67071 6.04219 3.36183 5.82359 2.97082 5.54708C2.54002 5.24217 2.00373 4.86572 1 4.86572" stroke="#ADADAD" stroke-linecap="round" stroke-linejoin="round"/>
<path d="M21 8.56274C19.9963 8.56274 19.4593 8.94203 19.0285 9.2441C18.6382 9.52062 18.3293 9.73921 17.666 9.73921C17.0028 9.73921 16.6945 9.52062 16.3035 9.2441C15.8721 8.93919 15.3364 8.56274 14.3327 8.56274C13.329 8.56274 12.7927 8.94203 12.3619 9.2441C11.9709 9.52062 11.662 9.73921 10.9994 9.73921C10.3367 9.73921 10.0279 9.52062 9.63685 9.2441C9.20605 8.93919 8.66976 8.56274 7.66603 8.56274C6.66231 8.56274 6.12665 8.94203 5.69522 9.2441C5.30485 9.52062 4.99596 9.73921 4.33333 9.73921C3.67071 9.73921 3.36183 9.52062 2.97082 9.2441C2.54002 8.93919 2.00373 8.56274 1 8.56274" stroke="#ADADAD" stroke-linecap="round" stroke-linejoin="round"/>
</svg>
