<svg width="23" height="16" viewBox="0 0 23 16" fill="none" xmlns="http://www.w3.org/2000/svg">
<path d="M7.05568 12.542C6.92035 12.542 6.81068 12.5 6.72668 12.416C6.64735 12.332 6.60768 12.2223 6.60768 12.087V7.978C6.60768 7.84267 6.64735 7.73533 6.72668 7.656C6.81068 7.572 6.92035 7.53 7.05568 7.53C7.19568 7.53 7.30535 7.572 7.38468 7.656C7.46868 7.73533 7.51068 7.84267 7.51068 7.978V12.087C7.51068 12.2223 7.46868 12.332 7.38468 12.416C7.30535 12.5 7.19568 12.542 7.05568 12.542ZM10.1934 12.535C10.0534 12.535 9.94143 12.4953 9.85743 12.416C9.7781 12.332 9.73843 12.2223 9.73843 12.087V8.307H8.46443C8.18443 8.307 8.04443 8.18333 8.04443 7.936C8.04443 7.68867 8.18443 7.565 8.46443 7.565H11.9154C12.1954 7.565 12.3354 7.68867 12.3354 7.936C12.3354 8.18333 12.1954 8.307 11.9154 8.307H10.6414V12.087C10.6414 12.2223 10.5994 12.332 10.5154 12.416C10.4361 12.4953 10.3288 12.535 10.1934 12.535ZM16.734 11.961C16.762 12.0217 16.776 12.0823 16.776 12.143C16.776 12.2503 16.7317 12.3413 16.643 12.416C16.559 12.4907 16.461 12.528 16.349 12.528C16.2743 12.528 16.2043 12.5093 16.139 12.472C16.0737 12.43 16.0223 12.367 15.985 12.283L15.565 11.345H13.101L12.681 12.283C12.6437 12.367 12.5923 12.43 12.527 12.472C12.4617 12.5093 12.3893 12.528 12.31 12.528C12.2027 12.528 12.1047 12.4907 12.016 12.416C11.9273 12.3413 11.883 12.2503 11.883 12.143C11.883 12.0823 11.897 12.0217 11.925 11.961L13.857 7.81C13.899 7.71667 13.962 7.64667 14.046 7.6C14.1347 7.54867 14.228 7.523 14.326 7.523C14.424 7.523 14.515 7.54867 14.599 7.6C14.6877 7.64667 14.753 7.71667 14.795 7.81L16.734 11.961ZM13.409 10.645H15.257L14.333 8.566L13.409 10.645Z" fill="#104190"/>
<path d="M18.3233 15H5.22312C4.10359 14.9988 3.03022 14.5239 2.23851 13.6795C1.4468 12.8351 1.00139 11.6901 1 10.4959C1.00116 9.30143 1.44647 8.15627 2.2382 7.31167C3.02994 6.46708 4.10344 5.99204 5.22312 5.9908C5.41172 5.9906 5.60012 6.00403 5.78702 6.03097C6.18312 4.57703 7.01176 3.29996 8.14789 2.39244C9.28403 1.48493 10.666 0.996206 12.0854 1.00002C13.6886 1.00574 15.2349 1.63504 16.4344 2.76996C17.6339 3.90489 18.4041 5.46752 18.6008 7.16495C19.5245 7.2413 20.3873 7.68611 21.0173 8.41077C21.6473 9.13542 21.9981 10.0867 22 11.075C22.0002 11.5903 21.9053 12.1006 21.7206 12.5767C21.536 13.0528 21.2652 13.4855 20.9238 13.85C20.5824 14.2144 20.177 14.5036 19.7308 14.7009C19.2846 14.8983 18.8063 14.9999 18.3233 15V15Z" stroke="#104190" stroke-miterlimit="10" stroke-linecap="round"/>
</svg>
