<svg width="23" height="16" viewBox="0 0 23 16" fill="none" xmlns="http://www.w3.org/2000/svg">
<path d="M7.83807 12.5C7.70274 12.5 7.5954 12.4627 7.51607 12.388C7.4414 12.3133 7.40407 12.2083 7.40407 12.073V7.992C7.40407 7.85667 7.4414 7.75167 7.51607 7.677C7.5954 7.60233 7.70274 7.565 7.83807 7.565H10.3651C10.5004 7.565 10.6054 7.59533 10.6801 7.656C10.7547 7.71667 10.7921 7.803 10.7921 7.915C10.7921 8.03167 10.7547 8.12267 10.6801 8.188C10.6054 8.24867 10.5004 8.279 10.3651 8.279H8.28607V9.637H10.2251C10.3604 9.637 10.4654 9.66733 10.5401 9.728C10.6147 9.78867 10.6521 9.87733 10.6521 9.994C10.6521 10.106 10.6147 10.1923 10.5401 10.253C10.4654 10.3137 10.3604 10.344 10.2251 10.344H8.28607V11.786H10.3651C10.5004 11.786 10.6054 11.8187 10.6801 11.884C10.7547 11.9447 10.7921 12.0333 10.7921 12.15C10.7921 12.262 10.7547 12.3483 10.6801 12.409C10.6054 12.4697 10.5004 12.5 10.3651 12.5H7.83807ZM13.5631 12.563C12.8865 12.563 12.3731 12.388 12.0231 12.038C11.6731 11.688 11.4981 11.177 11.4981 10.505V7.978C11.4981 7.84267 11.5378 7.73533 11.6171 7.656C11.6965 7.572 11.8038 7.53 11.9391 7.53C12.0745 7.53 12.1818 7.572 12.2611 7.656C12.3405 7.73533 12.3801 7.84267 12.3801 7.978V10.554C12.3801 10.9787 12.4805 11.3007 12.6811 11.52C12.8818 11.7347 13.1758 11.842 13.5631 11.842C13.9458 11.842 14.2375 11.7323 14.4381 11.513C14.6388 11.2937 14.7391 10.974 14.7391 10.554V7.978C14.7391 7.84267 14.7788 7.73533 14.8581 7.656C14.9375 7.572 15.0448 7.53 15.1801 7.53C15.3155 7.53 15.4228 7.572 15.5021 7.656C15.5815 7.73533 15.6211 7.84267 15.6211 7.978V10.505C15.6211 11.1723 15.4461 11.6833 15.0961 12.038C14.7461 12.388 14.2351 12.563 13.5631 12.563Z" fill="#104190"/>
<path d="M18.3233 15H5.22312C4.10359 14.9988 3.03022 14.5239 2.23851 13.6795C1.4468 12.8351 1.00139 11.6901 1 10.4959C1.00116 9.30143 1.44647 8.15627 2.2382 7.31167C3.02994 6.46708 4.10344 5.99204 5.22312 5.9908C5.41172 5.9906 5.60012 6.00403 5.78702 6.03097C6.18312 4.57703 7.01176 3.29996 8.14789 2.39244C9.28403 1.48493 10.666 0.996206 12.0854 1.00002C13.6886 1.00574 15.2349 1.63504 16.4344 2.76996C17.6339 3.90489 18.4041 5.46752 18.6008 7.16495C19.5245 7.2413 20.3873 7.68611 21.0173 8.41077C21.6473 9.13542 21.9981 10.0867 22 11.075C22.0002 11.5903 21.9053 12.1006 21.7206 12.5767C21.536 13.0528 21.2652 13.4855 20.9238 13.85C20.5824 14.2144 20.177 14.5036 19.7308 14.7009C19.2846 14.8983 18.8063 14.9999 18.3233 15V15Z" stroke="#104190" stroke-miterlimit="10" stroke-linecap="round"/>
</svg>
