<svg width="18" height="18" viewBox="0 0 18 18" fill="none" xmlns="http://www.w3.org/2000/svg">
<path d="M16.9803 1.25224C16.976 1.19198 16.9501 1.13529 16.9074 1.09258C16.8647 1.04986 16.808 1.02398 16.7477 1.01968C16.6675 1.01413 14.7589 0.885821 12.2142 1.36451C9.8601 1.80743 6.51099 2.87894 3.92251 5.46672C2.81336 6.57874 2.17628 8.07595 2.1441 9.6462C2.11192 11.2164 2.68712 12.7385 3.74978 13.895L4.10449 14.2504C5.26107 15.3131 6.78334 15.8883 8.35373 15.8558C9.92412 15.8234 11.4214 15.186 12.5331 14.0764C15.1241 11.4855 16.1925 8.139 16.6354 5.78502C17.1142 3.24103 16.9858 1.33243 16.9803 1.25224Z" stroke="#ADADAD" stroke-miterlimit="10" stroke-linecap="round"/>
<path d="M1 16.9999L13.5714 4.42847" stroke="#ADADAD" stroke-miterlimit="10" stroke-linecap="round"/>
<path d="M9 9H13.5714" stroke="#ADADAD" stroke-linecap="round" stroke-linejoin="round"/>
<path d="M6.71423 11.2857V7.85718" stroke="#ADADAD" stroke-linecap="round" stroke-linejoin="round"/>
</svg>
