<svg width="14" height="23" viewBox="0 0 14 23" fill="none" xmlns="http://www.w3.org/2000/svg">
<path d="M6.9985 21.7273C10.3071 21.7273 13 19.345 13 16.416C13 13.594 6.95589 1.64484 6.69842 1.13792C6.67642 1.09487 6.64317 1.05913 6.60247 1.03477C6.56177 1.01041 6.51527 0.998415 6.4683 1.00017C6.42133 1.00192 6.37579 1.01734 6.33688 1.04468C6.29798 1.07201 6.26728 1.11014 6.24831 1.15471C6.03406 1.66164 1 13.6034 1 16.416C0.9988 19.345 3.69047 21.7273 6.9985 21.7273Z" stroke="#ADADAD" stroke-linecap="round" stroke-linejoin="round"/>
<path d="M5.1818 13.7274C5.68387 13.7274 6.09089 13.3203 6.09089 12.8183C6.09089 12.3162 5.68387 11.9092 5.1818 11.9092C4.67972 11.9092 4.27271 12.3162 4.27271 12.8183C4.27271 13.3203 4.67972 13.7274 5.1818 13.7274Z" stroke="#ADADAD" stroke-linecap="round" stroke-linejoin="round"/>
<path d="M8.81815 17.3636C9.32023 17.3636 9.72724 16.9566 9.72724 16.4545C9.72724 15.9524 9.32023 15.5454 8.81815 15.5454C8.31607 15.5454 7.90906 15.9524 7.90906 16.4545C7.90906 16.9566 8.31607 17.3636 8.81815 17.3636Z" stroke="#ADADAD" stroke-linecap="round" stroke-linejoin="round"/>
<path d="M5.18176 17.3636L7.90904 12.8181L5.18176 17.3636Z" stroke="#ADADAD" stroke-linecap="round" stroke-linejoin="round"/>
</svg>
