<svg width="23" height="16" viewBox="0 0 23 16" fill="none" xmlns="http://www.w3.org/2000/svg">
<path d="M11.4615 11.4231C13.0971 11.4231 14.4231 10.0971 14.4231 8.46153C14.4231 6.82592 13.0971 5.5 11.4615 5.5C9.82592 5.5 8.5 6.82592 8.5 8.46153C8.5 10.0971 9.82592 11.4231 11.4615 11.4231Z" stroke="#104190" stroke-linecap="round" stroke-linejoin="round"/>
<path d="M15.5001 12.5001L13.8848 10.8848" stroke="#104190" stroke-linecap="round" stroke-linejoin="round"/>
<path d="M18.3233 15H5.22312C4.10359 14.9988 3.03022 14.5239 2.23851 13.6795C1.4468 12.8351 1.00139 11.6901 1 10.4959C1.00116 9.30143 1.44647 8.15627 2.2382 7.31167C3.02994 6.46708 4.10344 5.99204 5.22312 5.9908C5.41172 5.9906 5.60012 6.00403 5.78702 6.03097C6.18312 4.57703 7.01176 3.29996 8.14789 2.39244C9.28403 1.48493 10.666 0.996206 12.0854 1.00002C13.6886 1.00574 15.2349 1.63504 16.4344 2.76996C17.6339 3.90489 18.4041 5.46752 18.6008 7.16495C19.5245 7.2413 20.3873 7.68611 21.0173 8.41077C21.6473 9.13542 21.9981 10.0867 22 11.075C22.0002 11.5903 21.9053 12.1006 21.7206 12.5767C21.536 13.0528 21.2652 13.4855 20.9238 13.85C20.5824 14.2144 20.177 14.5036 19.7308 14.7009C19.2846 14.8983 18.8063 14.9999 18.3233 15V15Z" stroke="#104190" stroke-miterlimit="10" stroke-linecap="round"/>
</svg>
