<svg xmlns="http://www.w3.org/2000/svg" viewBox="0 0 209.95 343.25"><defs><style>.cls-1{fill:#3ea2d1;}.cls-2{fill:none;stroke:#3ea2d1;stroke-linecap:round;stroke-linejoin:round;stroke-width:10px;}</style></defs><g id="Livello_2" data-name="Livello 2"><g id="Layer_1" data-name="Layer 1"><path class="cls-1" d="M147.28,193.49a6.76,6.76,0,0,1,1.83,4.9v80.3a6.5,6.5,0,0,1-1.63,4.71,6,6,0,0,1-4.51,1.7,5.6,5.6,0,0,1-4.32-1.7,6.65,6.65,0,0,1-1.57-4.71V217.88l-25.63,48.78c-1.66,3-3.79,4.58-6.41,4.58s-4.75-1.53-6.41-4.58L72.87,218.4v60.29a6.65,6.65,0,0,1-1.57,4.71,5.77,5.77,0,0,1-4.45,1.7,5.67,5.67,0,0,1-4.38-1.77,6.55,6.55,0,0,1-1.63-4.64v-80.3a6.76,6.76,0,0,1,1.83-4.9,6.28,6.28,0,0,1,4.71-1.9q4.05,0,6.54,4.71l31.25,59.77,31-59.77q2.49-4.71,6.41-4.71A6.28,6.28,0,0,1,147.28,193.49Z"/><path class="cls-2" d="M105,338.25c55.12,0,100-38.3,100-85.39C205,207.49,104.24,15.38,100,7.23a4.17,4.17,0,0,0-7.5.27C88.88,15.65,5,207.64,5,252.86,5,300,49.85,338.25,105,338.25Z"/></g></g></svg>