<svg width="22" height="18" viewBox="0 0 22 18" fill="none" xmlns="http://www.w3.org/2000/svg">
<path d="M7.11512 12.9251C7.06453 12.9267 7.01556 12.9433 6.97447 12.9728C6.93338 13.0023 6.90203 13.0434 6.88443 13.0908C6.74625 13.4623 6.05701 15.3456 6.05701 15.8529C6.05701 16.1571 6.17794 16.4489 6.39319 16.664C6.60844 16.8792 6.90039 17 7.2048 17C7.50921 17 7.80116 16.8792 8.01641 16.664C8.23166 16.4489 8.35259 16.1571 8.35259 15.8529C8.35259 15.3326 7.52291 13.446 7.35652 13.0728C7.33654 13.0262 7.30259 12.987 7.25934 12.9606C7.2161 12.9341 7.16571 12.9217 7.11512 12.9251Z" stroke="#ADADAD" stroke-miterlimit="10" stroke-linecap="round"/>
<path d="M11.0442 12.9059C10.9936 12.9075 10.9446 12.9243 10.9035 12.9539C10.8624 12.9835 10.8311 13.0247 10.8135 13.0722C10.6753 13.4436 9.98608 15.3269 9.98608 15.8342C9.98608 16.1385 10.107 16.4302 10.3223 16.6454C10.5375 16.8605 10.8295 16.9813 11.1339 16.9813C11.4383 16.9813 11.7302 16.8605 11.9455 16.6454C12.1607 16.4302 12.2817 16.1385 12.2817 15.8342C12.2817 15.3139 11.452 13.4273 11.2856 13.0547C11.266 13.0078 11.2322 12.9681 11.1889 12.9414C11.1456 12.9147 11.095 12.9023 11.0442 12.9059V12.9059Z" stroke="#ADADAD" stroke-miterlimit="10" stroke-linecap="round"/>
<path d="M14.9725 12.9059C14.9219 12.9075 14.8729 12.9243 14.8318 12.9539C14.7908 12.9835 14.7594 13.0247 14.7419 13.0722C14.6037 13.4436 13.9144 15.3269 13.9144 15.8342C13.9144 16.1385 14.0354 16.4302 14.2506 16.6454C14.4659 16.8605 14.7578 16.9813 15.0622 16.9813C15.3666 16.9813 15.6586 16.8605 15.8738 16.6454C16.0891 16.4302 16.21 16.1385 16.21 15.8342C16.21 15.3139 15.3803 13.4273 15.2139 13.0547C15.1944 13.0078 15.1605 12.9681 15.1172 12.9414C15.0739 12.9147 15.0233 12.9023 14.9725 12.9059V12.9059Z" stroke="#ADADAD" stroke-miterlimit="10" stroke-linecap="round"/>
<path d="M8.00857 4.86326C7.44454 4.21615 6.56128 3.89541 5.70227 3.90499C4.84326 3.91458 4.01019 4.22404 3.27696 4.67104C2.2775 5.27926 1.41567 6.193 1.10715 7.32038C0.798626 8.44776 1.16073 9.79328 2.13706 10.4376C2.87029 10.9207 3.79022 10.9787 4.66672 10.9979C7.14843 11.0543 9.63014 11.0058 12.1119 10.9832C13.3527 10.972 14.5936 10.9663 15.8344 10.9832C17.007 10.9979 18.1187 11.0678 19.2513 10.6811C19.6376 10.5492 20.0161 10.3773 20.3359 10.123C20.6372 9.88324 20.8786 9.57678 21.0412 9.22783C21.2038 8.87887 21.2831 8.49695 21.2728 8.11216C21.2625 7.72737 21.163 7.35022 20.982 7.01043C20.801 6.67064 20.5435 6.3775 20.2299 6.15411C19.7578 5.8159 19.183 5.65694 18.6117 5.55604C17.5028 5.35931 16.3088 5.44837 15.3454 6.05659" stroke="#ADADAD" stroke-miterlimit="10" stroke-linecap="round"/>
<path d="M6.80261 3.9105C7.24523 2.96205 7.97537 2.17693 8.88951 1.66646C10.8354 0.585868 13.7317 0.831636 15.4085 2.31414C16.2546 3.06271 16.8665 4.11174 16.9534 5.23855" stroke="#ADADAD" stroke-miterlimit="10" stroke-linecap="round"/>
</svg>
