<svg xmlns="http://www.w3.org/2000/svg" viewBox="0 0 209.95 343.25"><defs><style>.cls-1{fill:none;stroke:#3ea2d1;stroke-linecap:round;stroke-linejoin:round;stroke-width:10px;}.cls-2{fill:#3ea2d1;}</style></defs><g id="Livello_2" data-name="Livello 2"><g id="Layer_1" data-name="Layer 1"><path class="cls-1" d="M105,338.25c55.12,0,100-38.3,100-85.39C205,207.49,104.24,15.38,100,7.23a4.17,4.17,0,0,0-7.5.27C88.88,15.65,5,207.64,5,252.86,5,300,49.85,338.25,105,338.25Z"/><path class="cls-2" d="M86.47,282.74a37.56,37.56,0,0,1-14.32-7.58,6.68,6.68,0,0,1-2.48-5.36,6.19,6.19,0,0,1,1.3-4,3.91,3.91,0,0,1,3.14-1.64,8.72,8.72,0,0,1,4.45,1.7,43.38,43.38,0,0,0,26.55,8.63q10.45,0,16.08-3.92a12.87,12.87,0,0,0,5.63-11.24,9.3,9.3,0,0,0-5.24-8.64q-5.22-2.87-16.74-5.49a100.64,100.64,0,0,1-18-5.36,26.88,26.88,0,0,1-11-8.17q-4-5.18-4-13.15a24.05,24.05,0,0,1,4.38-14.19,28.76,28.76,0,0,1,12.23-9.67,43.92,43.92,0,0,1,17.91-3.47,53.69,53.69,0,0,1,17.13,2.62,35.91,35.91,0,0,1,13.34,7.71,6.8,6.8,0,0,1,2.62,5.36,6.09,6.09,0,0,1-1.37,3.93,4.06,4.06,0,0,1-3.21,1.7,8.59,8.59,0,0,1-4.31-1.7,46.85,46.85,0,0,0-11.32-6.61,35.76,35.76,0,0,0-12.75-2q-10.06,0-15.69,4.12a13.37,13.37,0,0,0-5.62,11.44,10.55,10.55,0,0,0,5,9.48q5,3.21,16,5.82a131.18,131.18,0,0,1,18.64,5.43A28.5,28.5,0,0,1,136,246.19q4.26,4.91,4.25,12.62a23.22,23.22,0,0,1-4.38,13.93,28.22,28.22,0,0,1-12.29,9.41,46.51,46.51,0,0,1-18.24,3.34A64.14,64.14,0,0,1,86.47,282.74Z"/></g></g></svg>