<svg width="20" height="20" viewBox="0 0 20 20" fill="none" xmlns="http://www.w3.org/2000/svg">
<path d="M10 19C14.9706 19 19 14.9706 19 10C19 5.02944 14.9706 1 10 1C5.02944 1 1 5.02944 1 10C1 14.9706 5.02944 19 10 19Z" stroke="#ADADAD" stroke-miterlimit="10" stroke-linecap="round"/>
<path d="M9.99988 16C10.8283 16 11.4999 15.3284 11.4999 14.5C11.4999 13.6716 10.8283 13 9.99988 13C9.17145 13 8.49988 13.6716 8.49988 14.5C8.49988 15.3284 9.17145 16 9.99988 16Z" stroke="#ADADAD" stroke-miterlimit="10" stroke-linecap="round"/>
<path d="M4.00022 10C3.99182 9.21512 4.13879 8.43636 4.43265 7.70879C4.72651 6.98122 5.16141 6.31928 5.71218 5.76129C6.26295 5.20329 6.91866 4.76032 7.64136 4.45799C8.36407 4.15567 9.13941 4 9.92254 4C10.7057 4 11.481 4.15567 12.2037 4.45799C12.9264 4.76032 13.5821 5.20329 14.1329 5.76129C14.6837 6.31928 15.1186 6.98122 15.4124 7.70879C15.7063 8.43636 15.8533 9.21512 15.8449 10H18.9999" stroke="#ADADAD" stroke-miterlimit="10" stroke-linecap="round"/>
<path d="M10 13V12.5796V9.25" stroke="#ADADAD" stroke-miterlimit="10" stroke-linecap="round"/>
</svg>
