<svg width="16" height="27" viewBox="0 0 16 27" fill="none" xmlns="http://www.w3.org/2000/svg">
<path d="M10.4344 12.6979V11.6518H11.6521C11.7328 11.6518 11.8102 11.6197 11.8673 11.5626C11.9243 11.5056 11.9564 11.4282 11.9564 11.3475C11.9564 11.2668 11.9243 11.1894 11.8673 11.1324C11.8102 11.0753 11.7328 11.0432 11.6521 11.0432H10.4344V9.52126H11.6521C11.7328 9.52126 11.8102 9.48921 11.8673 9.43215C11.9243 9.37509 11.9564 9.2977 11.9564 9.21701C11.9564 9.13631 11.9243 9.05892 11.8673 9.00186C11.8102 8.9448 11.7328 8.91275 11.6521 8.91275H10.4344V7.39148H11.6521C11.7304 7.3877 11.8042 7.35396 11.8582 7.29725C11.9122 7.24054 11.9424 7.16521 11.9424 7.08687C11.9424 7.00853 11.9122 6.9332 11.8582 6.87649C11.8042 6.81978 11.7304 6.78603 11.6521 6.78226H10.4344V5.26099H11.6521C11.7328 5.26099 11.8102 5.22893 11.8673 5.17187C11.9243 5.11481 11.9564 5.03742 11.9564 4.95673C11.9564 4.87604 11.9243 4.79865 11.8673 4.74159C11.8102 4.68453 11.7328 4.65248 11.6521 4.65248H10.4344V3.10496C10.4338 2.54699 10.212 2.01202 9.81749 1.6174C9.42301 1.22279 8.88812 1.00075 8.33014 1H7.66986C7.11188 1.00075 6.57699 1.22279 6.1825 1.6174C5.78802 2.01202 5.56617 2.54699 5.5656 3.10496V12.6979C4.02607 13.2689 2.73628 14.363 1.92181 15.7888C1.10734 17.2146 0.820028 18.8813 1.11012 20.4975C1.4002 22.1137 2.24923 23.5765 3.50872 24.6301C4.7682 25.6836 6.35797 26.2609 8 26.2609C9.64203 26.2609 11.2318 25.6836 12.4913 24.6301C13.7508 23.5765 14.5998 22.1137 14.8899 20.4975C15.18 18.8813 14.8927 17.2146 14.0782 15.7888C13.2637 14.363 11.9739 13.2689 10.4344 12.6979Z" stroke="#ADADAD" stroke-miterlimit="10" stroke-linecap="round" stroke-linejoin="round"/>
<path d="M8.71731 14.2341V14.6275L9.09966 14.72C10.2112 14.9891 11.1855 15.6564 11.8381 16.5956C12.4907 17.5348 12.7763 18.6807 12.6408 19.8163C12.5053 20.9519 11.9581 21.9984 11.1028 22.7577C10.2476 23.517 9.14359 23.9363 7.99993 23.9363C6.85627 23.9363 5.7523 23.517 4.89705 22.7577C4.04179 21.9984 3.49461 20.9519 3.35911 19.8163C3.2236 18.6807 3.50918 17.5348 4.16176 16.5956C4.81435 15.6564 5.78866 14.9891 6.90021 14.72L7.28256 14.6275V14.2341V5.26103H7.2827L7.28241 5.24897C7.2801 5.15328 7.29696 5.0581 7.33198 4.96903C7.367 4.87995 7.41948 4.79878 7.48633 4.73029C7.55319 4.6618 7.63307 4.60738 7.72127 4.57022C7.80948 4.53306 7.90422 4.51392 7.99993 4.51392C8.09564 4.51392 8.19039 4.53306 8.27859 4.57022C8.3668 4.60738 8.44668 4.66181 8.51353 4.73029C8.58039 4.79878 8.63287 4.87995 8.66789 4.96903C8.70291 5.0581 8.71976 5.15328 8.71745 5.24897L8.71731 5.24896V5.26103V14.2341Z" stroke="#ADADAD" stroke-miterlimit="10" stroke-linecap="round"/>
</svg>
