<svg xmlns="http://www.w3.org/2000/svg" viewBox="0 0 250.56 319.28"><defs><style>.cls-1{fill:none;stroke:#3ea2d1;stroke-linecap:round;stroke-linejoin:round;stroke-width:10px;}.cls-2{fill:#3ea2d1;}</style></defs><g id="Livello_2" data-name="Livello 2"><g id="Layer_1" data-name="Layer 1"><path class="cls-1" d="M5,5V5Z"/><ellipse class="cls-1" cx="224.25" cy="102.11" rx="21.31" ry="40.51"/><line class="cls-1" x1="5" y1="36.68" x2="224.25" y2="61.6"/><line class="cls-1" x1="224.25" y1="143.56" x2="5" y2="168.48"/><path class="cls-1" d="M74.91,160c-25.47-33.89-26.63-72.11,0-115.27"/><path class="cls-1" d="M109.23,156c-21.86-31.72-22.72-67.19.19-106.88"/><path class="cls-1" d="M143.87,152.19c-18.76-29.77-19.27-62.79.69-99.46"/><path class="cls-1" d="M178.93,148.71c-16.07-27.81-16.39-58.44.79-92.17"/><path class="cls-1" d="M5,314.28v0Z"/><line class="cls-1" x1="5" y1="5" x2="5" y2="314.28"/><path class="cls-2" d="M140.41,303.55a5.66,5.66,0,0,1,1.82,4.49q0,6.24-7.11,6.24h-56a6.75,6.75,0,0,1-5-1.82,6.18,6.18,0,0,1-1.81-4.56A8.61,8.61,0,0,1,75,301.81L109,264.54a61.18,61.18,0,0,0,9.86-13.48,26.76,26.76,0,0,0,3.05-12q0-7.68-4.43-11.82T105,223.07q-12.33,0-24.51,9.43A25.19,25.19,0,0,1,77.77,234a5.2,5.2,0,0,1-2.24.51,4.26,4.26,0,0,1-3.48-1.89,7.11,7.11,0,0,1-1.45-4.49,6.92,6.92,0,0,1,2.89-5.81A47.33,47.33,0,0,1,88.14,214a50,50,0,0,1,17.26-3.12q14.35,0,22.83,7.32T136.72,238a38.34,38.34,0,0,1-3.85,16.83q-3.84,8-12.83,17.83L92.64,302h42.48A7.75,7.75,0,0,1,140.41,303.55Z"/><path class="cls-2" d="M187.61,207.07a3.84,3.84,0,0,1,1.18,3v52.24a4,4,0,0,1-1.14,3,4.88,4.88,0,0,1-6.17,0,4,4,0,0,1-1.14-3v-3.38a13,13,0,0,1-5.41,5.7,16.46,16.46,0,0,1-8.2,2,17.16,17.16,0,0,1-9.51-2.7,18,18,0,0,1-6.51-7.61A26,26,0,0,1,148.39,245a25.63,25.63,0,0,1,2.32-11.25,17.07,17.07,0,0,1,16-10.06,16.33,16.33,0,0,1,8.16,2,13.28,13.28,0,0,1,5.36,5.62V209.86A3.66,3.66,0,0,1,181.4,207a4.32,4.32,0,0,1,3.08-1.06A4.43,4.43,0,0,1,187.61,207.07ZM177.3,256q3-3.8,3-10.82t-3-10.82q-3-3.8-8.58-3.8a10.62,10.62,0,0,0-8.67,3.76Q157,238.1,157,245t3.13,10.86a11.45,11.45,0,0,0,17.16.12Z"/></g></g></svg>