<svg xmlns="http://www.w3.org/2000/svg" viewBox="0 0 260.31 260.31"><defs><style>.cls-1{fill:none;stroke:#3ea2d1;stroke-linecap:round;stroke-linejoin:round;stroke-width:10px;}.cls-2{fill:#3ea2d1;}</style></defs><g id="Livello_2" data-name="Livello 2"><g id="Layer_1" data-name="Layer 1"><path class="cls-1" d="M110.9,216.8A105.9,105.9,0,1,0,5,110.9,105.9,105.9,0,0,0,110.9,216.8Z"/><path class="cls-1" d="M255.31,255.31l-66.2-65.85"/><path class="cls-2" d="M137.58,115.29a18.16,18.16,0,0,1,3.4,11.16q0,9.13-6.54,14.31t-18,5.17H90.26a6.38,6.38,0,0,1-4.62-1.62A6.11,6.11,0,0,1,84,139.74V80.6A6.07,6.07,0,0,1,85.64,76a6.34,6.34,0,0,1,4.62-1.63h25.16q11.14,0,17.49,4.92t6.34,13.75a16.35,16.35,0,0,1-3,9.84A17.05,17.05,0,0,1,128,109,17.33,17.33,0,0,1,137.58,115.29ZM96.75,104.54h16.54q13.49,0,13.49-10c0-3.38-1.12-5.89-3.35-7.51s-5.62-2.43-10.14-2.43H96.75Zm28.61,28.71q3.24-2.53,3.24-7.91t-3.29-8q-3.3-2.64-10.3-2.64H96.75v21.1H115Q122.1,135.78,125.36,133.25Z"/></g></g></svg>