<?xml version="1.0" encoding="UTF-8" standalone="no"?>
<svg
   viewBox="0 0 225 104"
   version="1.1"
   id="svg14"
   sodipodi:docname="12h.svg"
   width="225"
   height="104"
   inkscape:version="1.1.1 (3bf5ae0d25, 2021-09-20)"
   xmlns:inkscape="http://www.inkscape.org/namespaces/inkscape"
   xmlns:sodipodi="http://sodipodi.sourceforge.net/DTD/sodipodi-0.dtd"
   xmlns="http://www.w3.org/2000/svg"
   xmlns:svg="http://www.w3.org/2000/svg">
  <sodipodi:namedview
     id="namedview16"
     pagecolor="#ffffff"
     bordercolor="#666666"
     borderopacity="1.0"
     inkscape:pageshadow="2"
     inkscape:pageopacity="0.0"
     inkscape:pagecheckerboard="0"
     showgrid="false"
     inkscape:zoom="2.045822"
     inkscape:cx="95.805013"
     inkscape:cy="54.01252"
     inkscape:window-width="1280"
     inkscape:window-height="961"
     inkscape:window-x="-8"
     inkscape:window-y="-8"
     inkscape:window-maximized="1"
     inkscape:current-layer="svg14" />
  <defs
     id="defs4">
    <style
       id="style2">.cls-1{fill:#3ea2d1;}</style>
  </defs>
  <g
     id="Livello_2"
     data-name="Livello 2"
     transform="matrix(0.95926835,0,0,0.95926835,39.999926,-2.4098124e-4)">
    <g
       id="Layer_1"
       data-name="Layer 1">
      <path
         class="cls-1"
         d="m 60.9,97.58 a 5.78,5.78 0 0 1 1.74,4.49 q 0,6.24 -7,6.23 H 7.25 q -7.11,0 -7.11,-6.23 A 5.66,5.66 0 0 1 2,97.58 7.75,7.75 0 0 1 7.25,96 H 23.92 V 23.62 L 9,33.05 A 5.62,5.62 0 0 1 6.1,33.92 5.43,5.43 0 0 1 1.82,31.75 7.52,7.52 0 0 1 0,26.81 5.87,5.87 0 0 1 2.9,21.6 L 25.23,7.38 a 12.32,12.32 0 0 1 6.38,-2 7.08,7.08 0 0 1 5.22,2 7.48,7.48 0 0 1 2,5.51 V 96 h 16.85 a 7.46,7.46 0 0 1 5.22,1.58 z"
         id="path6" />
      <path
         class="cls-1"
         d="m 144.64,97.58 a 5.69,5.69 0 0 1 1.81,4.49 q 0,6.24 -7.11,6.23 h -56 a 6.76,6.76 0 0 1 -5,-1.81 6.16,6.16 0 0 1 -1.81,-4.56 8.69,8.69 0 0 1 2.61,-6.1 l 34.07,-37.26 a 60.88,60.88 0 0 0 9.86,-13.49 26.69,26.69 0 0 0 3.05,-12 q 0,-7.68 -4.42,-11.82 -4.42,-4.14 -12.52,-4.16 -12.32,0 -24.5,9.43 a 27.33,27.33 0 0 1 -2.68,1.52 5.26,5.26 0 0 1 -2.25,0.5 4.25,4.25 0 0 1 -3.48,-1.88 7.11,7.11 0 0 1 -1.45,-4.49 6.87,6.87 0 0 1 2.9,-5.8 A 46.79,46.79 0 0 1 92.36,8 50.09,50.09 0 0 1 109.62,4.88 q 14.35,0 22.84,7.32 8.49,7.32 8.48,19.8 a 38.32,38.32 0 0 1 -3.84,16.82 q -3.85,8 -12.84,17.83 L 96.86,96 h 42.48 a 7.77,7.77 0 0 1 5.3,1.58 z"
         id="path8" />
      <path
         class="cls-1"
         d="m 192,34.41 v 22 a 3.84,3.84 0 0 1 -1.18,3 4.38,4.38 0 0 1 -3.13,1.1 4.25,4.25 0 0 1 -3.09,-1.1 3.92,3.92 0 0 1 -1.14,-3 V 34.49 q 0,-5.07 -2.07,-7.44 -2.07,-2.37 -6.46,-2.37 a 11.06,11.06 0 0 0 -8.29,3.22 11.84,11.84 0 0 0 -3.13,8.62 v 19.86 a 3.92,3.92 0 0 1 -1.14,3 4.23,4.23 0 0 1 -3.08,1.1 4.38,4.38 0 0 1 -3.13,-1.1 3.84,3.84 0 0 1 -1.19,-3 V 4.06 a 3.77,3.77 0 0 1 1.23,-3 4.58,4.58 0 0 1 3.17,-1.06 4.21,4.21 0 0 1 3,1.06 3.67,3.67 0 0 1 1.14,2.83 V 25 a 14.17,14.17 0 0 1 5.67,-5.41 17.2,17.2 0 0 1 8.11,-1.86 Q 192,17.75 192,34.41 Z"
         id="path10" />
    </g>
  </g>
</svg>
