<?xml version="1.0" encoding="UTF-8" standalone="no"?>
<svg
   viewBox="0 0 225 104"
   version="1.1"
   id="svg14"
   sodipodi:docname="15d.svg"
   width="225"
   height="104"
   inkscape:version="1.1.1 (3bf5ae0d25, 2021-09-20)"
   xmlns:inkscape="http://www.inkscape.org/namespaces/inkscape"
   xmlns:sodipodi="http://sodipodi.sourceforge.net/DTD/sodipodi-0.dtd"
   xmlns="http://www.w3.org/2000/svg"
   xmlns:svg="http://www.w3.org/2000/svg">
  <sodipodi:namedview
     id="namedview16"
     pagecolor="#ffffff"
     bordercolor="#666666"
     borderopacity="1.0"
     inkscape:pageshadow="2"
     inkscape:pageopacity="0.0"
     inkscape:pagecheckerboard="0"
     showgrid="false"
     width="225px"
     inkscape:zoom="2.0350109"
     inkscape:cx="96.313979"
     inkscape:cy="54.790861"
     inkscape:window-width="1280"
     inkscape:window-height="961"
     inkscape:window-x="-8"
     inkscape:window-y="-8"
     inkscape:window-maximized="1"
     inkscape:current-layer="svg14" />
  <defs
     id="defs4">
    <style
       id="style2">.cls-1{fill:#3ea2d1;}</style>
  </defs>
  <g
     id="Livello_2"
     data-name="Livello 2"
     transform="matrix(0.95357848,0,0,0.95357848,39.999916,-3.4389506e-4)">
    <g
       id="Layer_1"
       data-name="Layer 1">
      <path
         class="cls-1"
         d="m 60.9,97.58 a 5.78,5.78 0 0 1 1.74,4.49 q 0,6.24 -7,6.23 H 7.25 q -7.11,0 -7.11,-6.23 A 5.66,5.66 0 0 1 2,97.58 7.75,7.75 0 0 1 7.25,96 H 23.92 V 23.62 L 9,33.05 A 5.62,5.62 0 0 1 6.1,33.92 5.43,5.43 0 0 1 1.82,31.75 7.52,7.52 0 0 1 0,26.81 5.87,5.87 0 0 1 2.9,21.6 L 25.23,7.38 a 12.32,12.32 0 0 1 6.38,-2 7.08,7.08 0 0 1 5.22,2 7.48,7.48 0 0 1 2,5.51 V 96 h 16.85 a 7.46,7.46 0 0 1 5.22,1.58 z"
         id="path6" />
      <path
         class="cls-1"
         d="m 131.44,47.7 a 28.44,28.44 0 0 1 11.38,11.45 34.66,34.66 0 0 1 4.06,17 33.09,33.09 0 0 1 -4.49,17.25 31,31 0 0 1 -12.54,11.75 39.4,39.4 0 0 1 -18.49,4.2 52.8,52.8 0 0 1 -17.62,-3 41.2,41.2 0 0 1 -14.43,-8.41 7.44,7.44 0 0 1 -2.9,-5.81 6.91,6.91 0 0 1 1.45,-4.42 4.36,4.36 0 0 1 3.48,-1.81 6.25,6.25 0 0 1 2.4,0.44 12.73,12.73 0 0 1 2.53,1.44 48.93,48.93 0 0 0 12,7 34.1,34.1 0 0 0 12.68,2.39 q 10.15,0 15.81,-5.44 5.66,-5.44 5.65,-15.29 0,-9.43 -5.72,-15.08 -5.72,-5.65 -15.3,-5.66 a 28.27,28.27 0 0 0 -11.17,2.1 28.91,28.91 0 0 0 -9.28,6.6 7.4,7.4 0 0 1 -5.22,2 5.92,5.92 0 0 1 -4.13,-1.52 5.16,5.16 0 0 1 -1.67,-4 V 13.19 A 7.24,7.24 0 0 1 81.71,8 7,7 0 0 1 87,6.08 h 49.88 a 7.81,7.81 0 0 1 5.22,1.6 5.41,5.41 0 0 1 1.9,4.32 5.57,5.57 0 0 1 -1.88,4.49 7.87,7.87 0 0 1 -5.22,1.6 H 94.68 V 50.3 q 8,-6.66 19.87,-6.67 a 34.21,34.21 0 0 1 16.89,4.07 z"
         id="path8" />
      <path
         class="cls-1"
         d="m 191.83,1.1 a 3.84,3.84 0 0 1 1.19,3 v 52.2 a 4,4 0 0 1 -1.14,3 4.89,4.89 0 0 1 -6.18,0 4,4 0 0 1 -1.14,-3 v -3.38 a 13,13 0 0 1 -5.41,5.7 16.43,16.43 0 0 1 -8.2,2 17.16,17.16 0 0 1 -9.51,-2.7 18,18 0 0 1 -6.51,-7.61 26,26 0 0 1 -2.32,-11.25 25.59,25.59 0 0 1 2.32,-11.24 17.07,17.07 0 0 1 16,-10.06 16.33,16.33 0 0 1 8.16,2 13.24,13.24 0 0 1 5.37,5.62 V 3.89 A 3.67,3.67 0 0 1 185.6,1.06 4.33,4.33 0 0 1 188.7,0 4.43,4.43 0 0 1 191.83,1.1 Z M 181.52,50 q 3,-3.8 3,-10.82 0,-7.02 -3,-10.82 -3,-3.79 -8.58,-3.8 a 10.55,10.55 0 0 0 -8.66,3.76 q -3.09,3.77 -3.09,10.69 0,6.92 3.13,10.87 A 11.45,11.45 0 0 0 181.48,50 Z"
         id="path10" />
    </g>
  </g>
</svg>
