<?xml version="1.0" encoding="UTF-8" standalone="no"?>
<svg
   viewBox="0 0 225.00001 104"
   version="1.1"
   id="svg14"
   sodipodi:docname="15m.svg"
   width="225"
   height="104"
   inkscape:version="1.1.1 (3bf5ae0d25, 2021-09-20)"
   xmlns:inkscape="http://www.inkscape.org/namespaces/inkscape"
   xmlns:sodipodi="http://sodipodi.sourceforge.net/DTD/sodipodi-0.dtd"
   xmlns="http://www.w3.org/2000/svg"
   xmlns:svg="http://www.w3.org/2000/svg">
  <sodipodi:namedview
     id="namedview16"
     pagecolor="#ffffff"
     bordercolor="#666666"
     borderopacity="1.0"
     inkscape:pageshadow="2"
     inkscape:pageopacity="0.0"
     inkscape:pagecheckerboard="0"
     showgrid="false"
     inkscape:zoom="1.284809"
     inkscape:cx="108.18729"
     inkscape:cy="51.758666"
     inkscape:window-width="1280"
     inkscape:window-height="961"
     inkscape:window-x="-8"
     inkscape:window-y="-8"
     inkscape:window-maximized="1"
     inkscape:current-layer="svg14" />
  <defs
     id="defs4">
    <style
       id="style2">.cls-1{fill:#3ea2d1;}</style>
  </defs>
  <g
     id="Livello_2"
     data-name="Livello 2"
     transform="translate(8)">
    <g
       id="Layer_1"
       data-name="Layer 1">
      <path
         class="cls-1"
         d="m 60.9,92.22 a 5.79,5.79 0 0 1 1.74,4.49 q 0,6.24 -7,6.24 H 7.25 Q 0.14,103 0.14,96.71 A 5.67,5.67 0 0 1 2,92.22 7.8,7.8 0 0 1 7.29,90.62 H 23.92 V 18.27 L 9,27.7 A 5.61,5.61 0 0 1 6.1,28.56 5.43,5.43 0 0 1 1.82,26.39 7.48,7.48 0 0 1 0,21.46 5.9,5.9 0 0 1 2.9,16.24 L 25.23,2 a 12.34,12.34 0 0 1 6.38,-2 7.08,7.08 0 0 1 5.22,2 7.45,7.45 0 0 1 2,5.51 v 83.11 h 16.85 a 7.51,7.51 0 0 1 5.22,1.6 z"
         id="path6" />
      <path
         class="cls-1"
         d="m 131.44,42.34 a 28.57,28.57 0 0 1 11.38,11.45 34.66,34.66 0 0 1 4.06,17 33.06,33.06 0 0 1 -4.49,17.21 31,31 0 0 1 -12.54,11.75 39.4,39.4 0 0 1 -18.49,4.2 52.55,52.55 0 0 1 -17.62,-3 41.05,41.05 0 0 1 -14.43,-8.41 7.42,7.42 0 0 1 -2.9,-5.8 6.89,6.89 0 0 1 1.45,-4.42 4.35,4.35 0 0 1 3.48,-1.82 6.45,6.45 0 0 1 2.4,0.44 12.84,12.84 0 0 1 2.53,1.45 48.57,48.57 0 0 0 12,7 33.91,33.91 0 0 0 12.68,2.4 q 10.15,0 15.81,-5.44 5.66,-5.44 5.65,-15.3 0,-9.42 -5.72,-15.08 -5.72,-5.66 -15.3,-5.66 a 28.27,28.27 0 0 0 -11.17,2.11 28.72,28.72 0 0 0 -9.31,6.58 7.35,7.35 0 0 1 -5.22,2 5.87,5.87 0 0 1 -4.13,-1.52 5.13,5.13 0 0 1 -1.67,-4 V 7.83 A 7.23,7.23 0 0 1 81.71,2.61 7,7 0 0 1 87,0.72 h 49.88 a 7.87,7.87 0 0 1 5.22,1.6 5.41,5.41 0 0 1 1.9,4.35 5.57,5.57 0 0 1 -1.88,4.49 7.81,7.81 0 0 1 -5.22,1.6 H 94.68 V 45 q 8,-6.68 19.87,-6.67 a 34.21,34.21 0 0 1 16.89,4.01 z"
         id="path8" />
      <path
         class="cls-1"
         d="M 216.18,29.05 V 51 A 3.83,3.83 0 0 1 215,54 4.56,4.56 0 0 1 211.87,55.06 4.44,4.44 0 0 1 208.82,54 3.79,3.79 0 0 1 207.64,51 V 29.13 c 0,-3.43 -0.62,-5.93 -1.86,-7.48 -1.24,-1.55 -3.18,-2.32 -5.83,-2.32 a 9.19,9.19 0 0 0 -7.36,3.17 q -2.7,3.16 -2.7,8.66 V 51 a 3.8,3.8 0 0 1 -1.19,3 4.52,4.52 0 0 1 -3.12,1.06 4.44,4.44 0 0 1 -3.05,-1.06 3.79,3.79 0 0 1 -1.18,-3 V 29.13 c 0,-3.43 -0.62,-5.93 -1.86,-7.48 -1.24,-1.55 -3.18,-2.32 -5.83,-2.32 a 9.3,9.3 0 0 0 -7.4,3.17 q -2.74,3.16 -2.75,8.66 V 51 a 3.79,3.79 0 0 1 -1.18,3 4.41,4.41 0 0 1 -3,1.06 A 4.6,4.6 0 0 1 156.2,54 3.73,3.73 0 0 1 155,51 V 16.62 a 3.71,3.71 0 0 1 1.27,-3 4.47,4.47 0 0 1 3,-1.1 4.13,4.13 0 0 1 2.91,1 3.8,3.8 0 0 1 1.14,2.92 v 3.13 a 12.91,12.91 0 0 1 5.16,-5.41 15.21,15.21 0 0 1 7.61,-1.86 14.42,14.42 0 0 1 7.82,1.94 11.67,11.67 0 0 1 4.61,6 14.09,14.09 0 0 1 5.48,-5.69 16,16 0 0 1 8.28,-2.15 q 13.91,0 13.9,16.65 z"
         id="path10" />
    </g>
  </g>
</svg>
