<?xml version="1.0" encoding="UTF-8" standalone="no"?>
<svg
   viewBox="0 0 225 104"
   version="1.1"
   id="svg12"
   sodipodi:docname="1h.svg"
   width="225"
   height="104"
   inkscape:version="1.1.1 (3bf5ae0d25, 2021-09-20)"
   xmlns:inkscape="http://www.inkscape.org/namespaces/inkscape"
   xmlns:sodipodi="http://sodipodi.sourceforge.net/DTD/sodipodi-0.dtd"
   xmlns="http://www.w3.org/2000/svg"
   xmlns:svg="http://www.w3.org/2000/svg">
  <sodipodi:namedview
     id="namedview14"
     pagecolor="#ffffff"
     bordercolor="#666666"
     borderopacity="1.0"
     inkscape:pageshadow="2"
     inkscape:pageopacity="0.0"
     inkscape:pagecheckerboard="0"
     showgrid="false"
     width="225px"
     inkscape:zoom="6.6389656"
     inkscape:cx="145.73053"
     inkscape:cy="54.752505"
     inkscape:window-width="1280"
     inkscape:window-height="961"
     inkscape:window-x="-8"
     inkscape:window-y="-8"
     inkscape:window-maximized="1"
     inkscape:current-layer="svg12" />
  <defs
     id="defs4">
    <style
       id="style2">.cls-1{fill:#3ea2d1;}</style>
  </defs>
  <g
     id="Livello_2"
     data-name="Livello 2"
     transform="matrix(0.96005655,0,0,0.96005655,119.8493,-2.0353451e-4)">
    <g
       id="Layer_1"
       data-name="Layer 1">
      <path
         class="cls-1"
         d="m 60.9,97.58 a 5.78,5.78 0 0 1 1.74,4.49 q 0,6.24 -7,6.23 H 7.25 q -7.11,0 -7.11,-6.23 A 5.66,5.66 0 0 1 2,97.58 7.75,7.75 0 0 1 7.25,96 H 23.92 V 23.62 L 9,33.05 A 5.62,5.62 0 0 1 6.1,33.92 5.43,5.43 0 0 1 1.82,31.75 7.52,7.52 0 0 1 0,26.81 5.87,5.87 0 0 1 2.9,21.6 L 25.23,7.38 a 12.32,12.32 0 0 1 6.38,-2 7.08,7.08 0 0 1 5.22,2 7.48,7.48 0 0 1 2,5.51 V 96 h 16.85 a 7.46,7.46 0 0 1 5.22,1.58 z"
         id="path6" />
      <path
         class="cls-1"
         d="m 109.35,34.41 v 22 a 3.84,3.84 0 0 1 -1.18,3 4.38,4.38 0 0 1 -3.13,1.1 4.21,4.21 0 0 1 -3.08,-1.1 3.92,3.92 0 0 1 -1.15,-3 V 34.49 q 0,-5.07 -2.07,-7.44 -2.07,-2.37 -6.46,-2.37 A 11.06,11.06 0 0 0 84,27.9 11.84,11.84 0 0 0 80.87,36.52 v 19.86 a 3.92,3.92 0 0 1 -1.14,3 4.23,4.23 0 0 1 -3.08,1.1 4.38,4.38 0 0 1 -3.13,-1.1 3.84,3.84 0 0 1 -1.18,-3 V 4.06 a 3.76,3.76 0 0 1 1.22,-3 4.6,4.6 0 0 1 3.16,-1.06 4.21,4.21 0 0 1 3,1.06 3.67,3.67 0 0 1 1.14,2.83 V 25 a 14.17,14.17 0 0 1 5.67,-5.41 17.22,17.22 0 0 1 8.11,-1.86 q 14.72,0.02 14.71,16.68 z"
         id="path8" />
    </g>
  </g>
</svg>
