<?xml version="1.0" encoding="UTF-8" standalone="no"?>
<svg
   viewBox="0 0 225 104"
   version="1.1"
   id="svg14"
   sodipodi:docname="24h.svg"
   width="225"
   height="104"
   inkscape:version="1.1.1 (3bf5ae0d25, 2021-09-20)"
   xmlns:inkscape="http://www.inkscape.org/namespaces/inkscape"
   xmlns:sodipodi="http://sodipodi.sourceforge.net/DTD/sodipodi-0.dtd"
   xmlns="http://www.w3.org/2000/svg"
   xmlns:svg="http://www.w3.org/2000/svg">
  <sodipodi:namedview
     id="namedview16"
     pagecolor="#ffffff"
     bordercolor="#666666"
     borderopacity="1.0"
     inkscape:pageshadow="2"
     inkscape:pageopacity="0.0"
     inkscape:pagecheckerboard="0"
     showgrid="false"
     width="225px"
     inkscape:zoom="1.9656599"
     inkscape:cx="99.712062"
     inkscape:cy="54.180279"
     inkscape:window-width="1280"
     inkscape:window-height="961"
     inkscape:window-x="-8"
     inkscape:window-y="-8"
     inkscape:window-maximized="1"
     inkscape:current-layer="svg14" />
  <defs
     id="defs4">
    <style
       id="style2">.cls-1{fill:#3ea2d1;}</style>
  </defs>
  <g
     id="Livello_2"
     data-name="Livello 2"
     transform="matrix(0.94908557,0,0,0.94908557,34.508599,-3.0122578e-4)">
    <g
       id="Layer_1"
       data-name="Layer 1">
      <path
         class="cls-1"
         d="m 69.82,97.58 a 5.65,5.65 0 0 1 1.81,4.49 q 0,6.24 -7.11,6.23 h -56 a 6.76,6.76 0 0 1 -5,-1.81 6.16,6.16 0 0 1 -1.81,-4.56 8.69,8.69 0 0 1 2.61,-6.1 l 34.1,-37.26 a 61.29,61.29 0 0 0 9.87,-13.49 26.8,26.8 0 0 0 3,-12 Q 51.29,25.4 46.87,21.26 42.45,17.12 34.37,17.1 22,17.1 9.86,26.53 A 27.33,27.33 0 0 1 7.18,28.05 5.26,5.26 0 0 1 4.93,28.55 4.28,4.28 0 0 1 1.45,26.67 7.11,7.11 0 0 1 0,22.18 6.87,6.87 0 0 1 2.9,16.38 46.79,46.79 0 0 1 17.54,8 50.09,50.09 0 0 1 34.8,4.92 q 14.36,0 22.84,7.32 8.48,7.32 8.48,19.76 a 38.32,38.32 0 0 1 -3.84,16.82 q -3.86,8 -12.83,17.83 L 22,96 h 42.52 a 7.77,7.77 0 0 1 5.3,1.58 z"
         id="path6" />
      <path
         class="cls-1"
         d="m 158.05,81.19 q 0,5.94 -7.11,5.94 h -9.28 v 14.36 a 6.9,6.9 0 0 1 -7.39,7.54 7.18,7.18 0 0 1 -5.22,-2 7.35,7.35 0 0 1 -2,-5.58 V 87.13 H 86.27 A 6.68,6.68 0 0 1 81.34,85.39 6.05,6.05 0 0 1 79.6,80.9 9.86,9.86 0 0 1 81.49,75.25 L 127.74,8.69 a 8,8 0 0 1 11.75,-1.38 7.13,7.13 0 0 1 2.17,5.58 v 62.36 h 9.28 q 7.11,0 7.11,5.94 z m -31,-5.94 V 30 L 95.7,75.25 Z"
         id="path8" />
      <path
         class="cls-1"
         d="m 199.83,34.41 v 22 a 3.84,3.84 0 0 1 -1.18,3 4.38,4.38 0 0 1 -3.13,1.1 4.25,4.25 0 0 1 -3.09,-1.1 3.92,3.92 0 0 1 -1.14,-3 V 34.49 q 0,-5.07 -2.07,-7.44 -2.07,-2.37 -6.46,-2.37 a 11.06,11.06 0 0 0 -8.29,3.22 11.84,11.84 0 0 0 -3.13,8.62 v 19.86 a 3.92,3.92 0 0 1 -1.14,3 4.23,4.23 0 0 1 -3.08,1.1 4.38,4.38 0 0 1 -3.13,-1.1 3.84,3.84 0 0 1 -1.19,-3 V 4.06 a 3.77,3.77 0 0 1 1.23,-3 4.58,4.58 0 0 1 3.17,-1.06 4.21,4.21 0 0 1 3,1.06 3.67,3.67 0 0 1 1.14,2.83 V 25 a 14.17,14.17 0 0 1 5.66,-5.39 17.2,17.2 0 0 1 8.11,-1.86 q 14.73,0 14.72,16.66 z"
         id="path10" />
    </g>
  </g>
</svg>
