<?xml version="1.0" encoding="UTF-8" standalone="no"?>
<svg
   viewBox="0 0 225 104"
   version="1.1"
   id="svg14"
   sodipodi:docname="30d.svg"
   width="225"
   height="104"
   inkscape:version="1.1.1 (3bf5ae0d25, 2021-09-20)"
   xmlns:inkscape="http://www.inkscape.org/namespaces/inkscape"
   xmlns:sodipodi="http://sodipodi.sourceforge.net/DTD/sodipodi-0.dtd"
   xmlns="http://www.w3.org/2000/svg"
   xmlns:svg="http://www.w3.org/2000/svg">
  <sodipodi:namedview
     id="namedview16"
     pagecolor="#ffffff"
     bordercolor="#666666"
     borderopacity="1.0"
     inkscape:pageshadow="2"
     inkscape:pageopacity="0.0"
     inkscape:pagecheckerboard="0"
     showgrid="false"
     inkscape:zoom="1.3720114"
     inkscape:cx="101.31111"
     inkscape:cy="54.299839"
     inkscape:window-width="1280"
     inkscape:window-height="961"
     inkscape:window-x="-8"
     inkscape:window-y="-8"
     inkscape:window-maximized="1"
     inkscape:current-layer="svg14" />
  <defs
     id="defs4">
    <style
       id="style2">.cls-1{fill:#3ea2d1;}</style>
  </defs>
  <g
     id="Livello_2"
     data-name="Livello 2"
     transform="matrix(0.94239695,0,0,0.94239695,33.270972,-5.1239002e-4)">
    <g
       id="Layer_1"
       data-name="Layer 1">
      <path
         class="cls-1"
         d="m 65.39,64.73 q 4.79,6.27 4.79,15.88 0,13.33 -9.35,21 -9.35,7.67 -25.31,7.69 A 54.08,54.08 0 0 1 17.47,106.3 42.7,42.7 0 0 1 2.9,97.87 7.15,7.15 0 0 1 0,92.06 a 6.85,6.85 0 0 1 1.45,-4.42 4.36,4.36 0 0 1 3.48,-1.81 9.1,9.1 0 0 1 4.93,1.88 54.18,54.18 0 0 0 12.25,7 34.91,34.91 0 0 0 13,2.39 Q 55.69,97.1 55.7,79.56 55.7,71 50.26,66.72 44.82,62.44 33.78,62.49 h -8 a 5.49,5.49 0 0 1 -4.35,-1.82 6.24,6.24 0 0 1 -1.6,-4.28 6.06,6.06 0 0 1 1.6,-4.13 5.48,5.48 0 0 1 4.35,-1.81 h 5.65 q 10.59,0 16.17,-4.42 5.58,-4.42 5.58,-13 0,-7.53 -4.56,-11.75 -4.56,-4.22 -12.81,-4.18 -12.18,0 -24.36,9.43 A 9.07,9.07 0 0 1 6.52,28.41 4.33,4.33 0 0 1 3,26.6 6.89,6.89 0 0 1 1.55,22.18 7.14,7.14 0 0 1 4.45,16.38 43.11,43.11 0 0 1 18.92,8 51.6,51.6 0 0 1 36.39,5 q 14.36,0 22.84,7.11 8.48,7.11 8.48,19.28 a 26.78,26.78 0 0 1 -4.27,15.15 24.07,24.07 0 0 1 -12.11,9.35 q 9.27,2.53 14.06,8.84 z"
         id="path6" />
      <path
         class="cls-1"
         d="m 92.15,96.12 q -9.36,-13.34 -9.36,-38.85 0,-25.67 9.36,-39 9.36,-13.33 27.18,-13.35 17.83,0 27.19,13.27 9.36,13.27 9.35,38.93 0,25.67 -9.35,39 -9.35,13.33 -27.19,13.34 -17.83,0 -27.18,-13.34 z m 43.57,-8.41 q 5.22,-9.7 5.22,-30.59 0,-20.89 -5.22,-30.52 Q 130.5,17 119.33,17 108.16,17 103,26.6 q -5.22,9.65 -5.22,30.52 0,20.87 5.22,30.52 5.22,9.8 16.38,9.79 11.16,-0.01 16.34,-9.72 z"
         id="path8" />
      <path
         class="cls-1"
         d="m 201.26,1.1 a 3.84,3.84 0 0 1 1.18,3 v 52.2 a 4,4 0 0 1 -1.14,3 4.88,4.88 0 0 1 -6.17,0 4,4 0 0 1 -1.14,-3 v -3.38 a 13.08,13.08 0 0 1 -5.41,5.7 16.46,16.46 0 0 1 -8.2,2 17.16,17.16 0 0 1 -9.51,-2.7 18,18 0 0 1 -6.51,-7.61 26,26 0 0 1 -2.36,-11.26 25.59,25.59 0 0 1 2.33,-11.24 17,17 0 0 1 16,-10.06 16.27,16.27 0 0 1 8.15,2 13.24,13.24 0 0 1 5.37,5.62 V 3.89 A 3.67,3.67 0 0 1 195,1.06 4.34,4.34 0 0 1 198.13,0 4.44,4.44 0 0 1 201.26,1.1 Z M 190.94,50 q 3,-3.8 3.05,-10.82 0.05,-7.02 -2.99,-10.78 a 10.31,10.31 0 0 0 -8.58,-3.8 10.59,10.59 0 0 0 -8.67,3.76 q -3.09,3.77 -3.08,10.69 0.01,6.92 3.12,10.87 a 10.43,10.43 0 0 0 8.63,3.93 10.28,10.28 0 0 0 8.52,-3.85 z"
         id="path10" />
    </g>
  </g>
</svg>
