<svg xmlns="http://www.w3.org/2000/svg" viewBox="0 0 225.6 104.54"><defs><style>.cls-1{fill:#3ea2d1;}</style></defs><g id="Livello_2" data-name="Livello 2"><g id="Layer_1" data-name="Layer 1"><path class="cls-1" d="M65.39,59.81q4.78,6.31,4.79,15.88,0,13.34-9.35,21T35.52,104.4a54.08,54.08,0,0,1-18.05-3A42.7,42.7,0,0,1,2.9,93,7.15,7.15,0,0,1,0,87.14a6.85,6.85,0,0,1,1.45-4.42,4.36,4.36,0,0,1,3.48-1.81,9.1,9.1,0,0,1,4.93,1.88,54.18,54.18,0,0,0,12.25,7,34.91,34.91,0,0,0,13,2.39q20.58,0,20.59-17.54,0-8.57-5.44-12.84T33.78,57.57h-8a5.49,5.49,0,0,1-4.35-1.82,6.24,6.24,0,0,1-1.6-4.28,6.06,6.06,0,0,1,1.6-4.13,5.48,5.48,0,0,1,4.35-1.81h5.65q10.59,0,16.17-4.42t5.58-13q0-7.53-4.56-11.75t-12.84-4.2q-12.18,0-24.36,9.43a9.07,9.07,0,0,1-4.93,1.88A4.33,4.33,0,0,1,3,21.68a6.89,6.89,0,0,1-1.45-4.42,7.14,7.14,0,0,1,2.9-5.8A43.11,43.11,0,0,1,18.92,3,51.6,51.6,0,0,1,36.39,0Q50.75,0,59.23,7.11t8.48,19.28a26.78,26.78,0,0,1-4.27,15.15,24.07,24.07,0,0,1-12.11,9.35Q60.6,53.5,65.39,59.81Z"/><path class="cls-1" d="M92.15,91.21q-9.36-13.35-9.36-38.86,0-25.66,9.36-39T119.33,0q17.83,0,27.19,13.27t9.35,38.93q0,25.67-9.35,39t-27.19,13.33Q101.5,104.54,92.15,91.21Zm43.57-8.42q5.22-9.71,5.22-30.59t-5.22-30.52Q130.5,12,119.33,12T103,21.68q-5.22,9.65-5.22,30.52T103,82.72q5.22,9.8,16.38,9.79T135.72,82.79Z"/><path class="cls-1" d="M225.6,29.49v22a3.83,3.83,0,0,1-1.18,3,4.54,4.54,0,0,1-3.13,1.05,4.41,4.41,0,0,1-3-1.05,3.83,3.83,0,0,1-1.18-3V29.57c0-3.44-.63-5.93-1.86-7.48s-3.19-2.33-5.84-2.33A9.16,9.16,0,0,0,202,22.93q-2.72,3.18-2.71,8.67V51.46a3.83,3.83,0,0,1-1.18,3A4.54,4.54,0,0,1,195,55.52a4.41,4.41,0,0,1-3-1.05,3.84,3.84,0,0,1-1.19-3V29.57q0-5.16-1.85-7.48c-1.25-1.55-3.19-2.33-5.84-2.33a9.28,9.28,0,0,0-7.39,3.17c-1.84,2.12-2.75,5-2.75,8.67V51.46a3.84,3.84,0,0,1-1.19,3,4.41,4.41,0,0,1-3,1.05,4.55,4.55,0,0,1-3.08-1.05,3.76,3.76,0,0,1-1.23-3V17.06a3.7,3.7,0,0,1,1.27-3,4.49,4.49,0,0,1,3-1.1,4.11,4.11,0,0,1,2.92,1.06A3.77,3.77,0,0,1,172.77,17V20.1a13,13,0,0,1,5.16-5.41,15.18,15.18,0,0,1,7.6-1.86,14.39,14.39,0,0,1,7.82,1.95,11.53,11.53,0,0,1,4.61,6,14.11,14.11,0,0,1,5.5-5.79,15.88,15.88,0,0,1,8.28-2.16Q225.6,12.83,225.6,29.49Z"/></g></g></svg>