<?xml version="1.0" encoding="UTF-8" standalone="no"?>
<svg
   viewBox="0 0 225.00001 104"
   version="1.1"
   id="svg12"
   sodipodi:docname="6h.svg"
   width="225"
   height="104"
   inkscape:version="1.1.1 (3bf5ae0d25, 2021-09-20)"
   xmlns:inkscape="http://www.inkscape.org/namespaces/inkscape"
   xmlns:sodipodi="http://sodipodi.sourceforge.net/DTD/sodipodi-0.dtd"
   xmlns="http://www.w3.org/2000/svg"
   xmlns:svg="http://www.w3.org/2000/svg">
  <sodipodi:namedview
     id="namedview14"
     pagecolor="#ffffff"
     bordercolor="#666666"
     borderopacity="1.0"
     inkscape:pageshadow="2"
     inkscape:pageopacity="0.0"
     inkscape:pagecheckerboard="0"
     showgrid="false"
     width="225px"
     inkscape:zoom="3.2843048"
     inkscape:cx="102.45699"
     inkscape:cy="54.65388"
     inkscape:window-width="1280"
     inkscape:window-height="961"
     inkscape:window-x="-8"
     inkscape:window-y="-8"
     inkscape:window-maximized="1"
     inkscape:current-layer="svg12" />
  <defs
     id="defs4">
    <style
       id="style2">.cls-1{fill:#3ea2d1;}</style>
  </defs>
  <g
     id="Livello_2"
     data-name="Livello 2"
     transform="matrix(0.95105924,0,0,0.95105924,111.99999,-3.0811355e-4)">
    <g
       id="Layer_1"
       data-name="Layer 1">
      <path
         class="cls-1"
         d="m 57.86,47.62 a 28.72,28.72 0 0 1 11.23,11.53 35.18,35.18 0 0 1 4,17 34,34 0 0 1 -4.36,17.15 31.12,31.12 0 0 1 -12,11.89 34.78,34.78 0 0 1 -17.33,4.27 q -19,0 -29.22,-13 Q -0.04,83.46 0,59.44 0,42.44 4.79,30.22 9.58,18 18.56,11.45 A 35.31,35.31 0 0 1 39.88,4.92 47.84,47.84 0 0 1 56.41,8 a 41.75,41.75 0 0 1 14.06,8.42 7.41,7.41 0 0 1 2.9,5.8 6.89,6.89 0 0 1 -1.45,4.42 4.33,4.33 0 0 1 -3.48,1.81 A 6.17,6.17 0 0 1 66.05,28 12.77,12.77 0 0 1 63.51,26.56 Q 51.33,17.1 40.31,17.1 q -12,0 -18.7,11.09 -6.7,11.09 -6.68,31 v 0.29 A 24.79,24.79 0 0 1 25.3,47.77 31,31 0 0 1 41.47,43.49 32.58,32.58 0 0 1 57.86,47.62 Z m -4.72,43.94 q 5.45,-5.73 5.44,-15.15 -0.01,-9.42 -5.44,-15 -5.43,-5.73 -14.43,-5.73 -9,0 -14.86,5.72 -5.73,5.73 -5.73,15 0,9.27 5.66,15.15 5.66,5.73 14.93,5.73 9,0.01 14.43,-5.72 z"
         id="path6" />
      <path
         class="cls-1"
         d="m 118.2,34.41 v 22 a 3.87,3.87 0 0 1 -1.18,3 4.4,4.4 0 0 1 -3.13,1.1 4.23,4.23 0 0 1 -3.09,-1.1 3.92,3.92 0 0 1 -1.14,-3 V 34.49 q 0,-5.07 -2.07,-7.44 -2.07,-2.37 -6.47,-2.37 a 11,11 0 0 0 -8.28,3.22 11.8,11.8 0 0 0 -3.13,8.62 v 19.86 a 3.92,3.92 0 0 1 -1.14,3 4.23,4.23 0 0 1 -3.09,1.1 4.36,4.36 0 0 1 -3.12,-1.1 3.84,3.84 0 0 1 -1.19,-3 V 4.06 a 3.77,3.77 0 0 1 1.23,-3 4.56,4.56 0 0 1 3.17,-1.06 4.21,4.21 0 0 1 3,1.06 3.67,3.67 0 0 1 1.14,2.83 V 25 a 14.21,14.21 0 0 1 5.66,-5.41 17.27,17.27 0 0 1 8.12,-1.86 q 14.72,0.02 14.71,16.68 z"
         id="path8" />
    </g>
  </g>
</svg>
