<svg xmlns="http://www.w3.org/2000/svg" viewBox="0 0 301.89 301.89"><defs><style>.cls-1{fill:none;stroke:#3ea2d1;stroke-linecap:round;stroke-linejoin:round;stroke-width:10px;}</style></defs><g id="Livello_2" data-name="Livello 2"><g id="Layer_1" data-name="Layer 1"><line class="cls-1" x1="5" y1="267.28" x2="296.89" y2="267.28"/><line class="cls-1" x1="34.32" y1="296.89" x2="34.32" y2="5"/><line class="cls-1" x1="34.32" y1="136.98" x2="296.89" y2="136.98"/><path class="cls-1" d="M63.62,233.79C69.4,236,76.18,234,81,230s7.83-9.58,10.28-15.27c4.26-9.93,7-20.45,9.84-30.87A885.93,885.93,0,0,1,146.22,58.23c3.8-8.5,9.32-18.12,18.59-19"/><path class="cls-1" d="M268.79,233.79C263,236,256.23,234,251.47,230s-7.84-9.58-10.28-15.27c-4.27-9.93-7-20.45-9.85-30.87A885.93,885.93,0,0,0,186.19,58.23c-3.8-8.5-9.32-18.12-18.59-19"/></g></g></svg>