<svg width="22" height="15" viewBox="0 0 22 15" fill="none" xmlns="http://www.w3.org/2000/svg">
<path d="M7.46632 10C7.33099 10 7.22599 9.96267 7.15132 9.888C7.07666 9.81333 7.03932 9.71067 7.03932 9.58V5.478C7.03932 5.34267 7.07899 5.23533 7.15832 5.156C7.24232 5.072 7.35199 5.03 7.48732 5.03C7.62732 5.03 7.73699 5.072 7.81632 5.156C7.90032 5.23533 7.94232 5.34267 7.94232 5.478V9.258H9.90932C10.1893 9.258 10.3293 9.38167 10.3293 9.629C10.3293 9.87633 10.1893 10 9.90932 10H7.46632ZM11.3701 10.042C11.2348 10.042 11.1251 10 11.0411 9.916C10.9618 9.832 10.9221 9.72233 10.9221 9.587V5.478C10.9221 5.34267 10.9618 5.23533 11.0411 5.156C11.1251 5.072 11.2348 5.03 11.3701 5.03C11.5101 5.03 11.6198 5.072 11.6991 5.156C11.7831 5.23533 11.8251 5.34267 11.8251 5.478V9.587C11.8251 9.72233 11.7831 9.832 11.6991 9.916C11.6198 10 11.5101 10.042 11.3701 10.042ZM16.6499 7.333C16.7572 7.333 16.8436 7.36567 16.9089 7.431C16.9742 7.49167 17.0069 7.57333 17.0069 7.676V9.181C17.0069 9.39567 16.9789 9.54733 16.9229 9.636C16.8669 9.72467 16.7526 9.797 16.5799 9.853C16.3932 9.91833 16.1762 9.96967 15.9289 10.007C15.6816 10.0443 15.4436 10.063 15.2149 10.063C14.7062 10.063 14.2652 9.96267 13.8919 9.762C13.5186 9.56133 13.2316 9.272 13.0309 8.894C12.8349 8.51133 12.7369 8.05633 12.7369 7.529C12.7369 7.011 12.8349 6.563 13.0309 6.185C13.2316 5.80233 13.5139 5.51067 13.8779 5.31C14.2419 5.10467 14.6712 5.002 15.1659 5.002C15.8239 5.002 16.3629 5.17933 16.7829 5.534C16.8389 5.58533 16.8786 5.63667 16.9019 5.688C16.9299 5.73933 16.9439 5.8 16.9439 5.87C16.9439 5.97267 16.9159 6.059 16.8599 6.129C16.8039 6.199 16.7362 6.234 16.6569 6.234C16.6056 6.234 16.5589 6.227 16.5169 6.213C16.4749 6.19433 16.4259 6.16633 16.3699 6.129C16.1646 5.98433 15.9732 5.884 15.7959 5.828C15.6186 5.76733 15.4179 5.737 15.1939 5.737C14.6852 5.737 14.3002 5.88867 14.0389 6.192C13.7822 6.49067 13.6539 6.93633 13.6539 7.529C13.6539 8.74233 14.1859 9.349 15.2499 9.349C15.5672 9.349 15.8846 9.30467 16.2019 9.216V7.977H15.4109C15.2989 7.977 15.2102 7.949 15.1449 7.893C15.0842 7.837 15.0539 7.75767 15.0539 7.655C15.0539 7.55233 15.0842 7.473 15.1449 7.417C15.2102 7.361 15.2989 7.333 15.4109 7.333H16.6499Z" fill="#104190"/>
<path d="M21 12.5625C19.9963 12.5625 19.4593 12.9418 19.0285 13.2439C18.6382 13.5204 18.3293 13.739 17.666 13.739C17.0028 13.739 16.6945 13.5204 16.3035 13.2439C15.8721 12.9389 15.3364 12.5625 14.3327 12.5625C13.329 12.5625 12.7927 12.9418 12.3619 13.2439C11.9709 13.5204 11.662 13.739 10.9994 13.739C10.3367 13.739 10.0279 13.5204 9.63685 13.2439C9.20605 12.9389 8.66976 12.5625 7.66603 12.5625C6.66231 12.5625 6.12665 12.9418 5.69522 13.2439C5.30485 13.5204 4.99596 13.739 4.33333 13.739C3.67071 13.739 3.36183 13.5204 2.97082 13.2439C2.54002 12.9389 2.00373 12.5625 1 12.5625" stroke="#104190" stroke-linecap="round" stroke-linejoin="round"/>
</svg>
