<svg width="22" height="15" viewBox="0 0 22 15" fill="none" xmlns="http://www.w3.org/2000/svg">
<path d="M9.27142 5.03C9.40209 5.03 9.50709 5.072 9.58642 5.156C9.66576 5.23533 9.70542 5.34267 9.70542 5.478V9.622C9.70542 9.75267 9.66809 9.85533 9.59342 9.93C9.51876 10.0047 9.42076 10.042 9.29942 10.042C9.17809 10.042 9.08242 10.0047 9.01242 9.93C8.94242 9.85533 8.90742 9.75267 8.90742 9.622V6.738L7.71742 8.992C7.66142 9.09467 7.60076 9.17167 7.53542 9.223C7.47009 9.26967 7.39309 9.293 7.30442 9.293C7.21576 9.293 7.13876 9.26967 7.07342 9.223C7.00809 9.17633 6.94742 9.09933 6.89142 8.992L5.69442 6.773V9.622C5.69442 9.748 5.65709 9.85067 5.58242 9.93C5.51242 10.0047 5.41676 10.042 5.29542 10.042C5.17409 10.042 5.07842 10.0047 5.00842 9.93C4.93842 9.85533 4.90342 9.75267 4.90342 9.622V5.478C4.90342 5.34267 4.94076 5.23533 5.01542 5.156C5.09476 5.072 5.19976 5.03 5.33042 5.03C5.51242 5.03 5.65476 5.13033 5.75742 5.331L7.31142 8.292L8.85842 5.331C8.96109 5.13033 9.09876 5.03 9.27142 5.03ZM11.2092 10C11.0738 10 10.9665 9.96267 10.8872 9.888C10.8125 9.81333 10.7752 9.70833 10.7752 9.573V5.492C10.7752 5.35667 10.8125 5.25167 10.8872 5.177C10.9665 5.10233 11.0738 5.065 11.2092 5.065H13.7362C13.8715 5.065 13.9765 5.09533 14.0512 5.156C14.1258 5.21667 14.1632 5.303 14.1632 5.415C14.1632 5.53167 14.1258 5.62267 14.0512 5.688C13.9765 5.74867 13.8715 5.779 13.7362 5.779H11.6572V7.137H13.5962C13.7315 7.137 13.8365 7.16733 13.9112 7.228C13.9858 7.28867 14.0232 7.37733 14.0232 7.494C14.0232 7.606 13.9858 7.69233 13.9112 7.753C13.8365 7.81367 13.7315 7.844 13.5962 7.844H11.6572V9.286H13.7362C13.8715 9.286 13.9765 9.31867 14.0512 9.384C14.1258 9.44467 14.1632 9.53333 14.1632 9.65C14.1632 9.762 14.1258 9.84833 14.0512 9.909C13.9765 9.96967 13.8715 10 13.7362 10H11.2092ZM15.3312 10C15.1959 10 15.0886 9.96267 15.0092 9.888C14.9346 9.81333 14.8972 9.70833 14.8972 9.573V5.492C14.8972 5.35667 14.9346 5.25167 15.0092 5.177C15.0886 5.10233 15.1959 5.065 15.3312 5.065H16.7172C17.5246 5.065 18.1499 5.282 18.5932 5.716C19.0412 6.14533 19.2652 6.74967 19.2652 7.529C19.2652 8.313 19.0412 8.922 18.5932 9.356C18.1499 9.78533 17.5246 10 16.7172 10H15.3312ZM16.6612 9.265C17.7952 9.265 18.3622 8.68633 18.3622 7.529C18.3622 6.37633 17.7952 5.8 16.6612 5.8H15.8002V9.265H16.6612Z" fill="#104190"/>
<path d="M21 12.5625C19.9963 12.5625 19.4593 12.9418 19.0285 13.2439C18.6382 13.5204 18.3293 13.739 17.666 13.739C17.0028 13.739 16.6945 13.5204 16.3035 13.2439C15.8721 12.9389 15.3364 12.5625 14.3327 12.5625C13.329 12.5625 12.7927 12.9418 12.3619 13.2439C11.9709 13.5204 11.662 13.739 10.9994 13.739C10.3367 13.739 10.0279 13.5204 9.63685 13.2439C9.20605 12.9389 8.66976 12.5625 7.66603 12.5625C6.66231 12.5625 6.12665 12.9418 5.69522 13.2439C5.30485 13.5204 4.99596 13.739 4.33333 13.739C3.67071 13.739 3.36183 13.5204 2.97082 13.2439C2.54002 12.9389 2.00373 12.5625 1 12.5625" stroke="#104190" stroke-linecap="round" stroke-linejoin="round"/>
</svg>
