<svg xmlns="http://www.w3.org/2000/svg" viewBox="0 0 273.68 158.91"><defs><style>.cls-1{fill:#3ea2d1;}.cls-2{fill:none;stroke:#3ea2d1;stroke-linecap:round;stroke-miterlimit:10;stroke-width:9px;}</style></defs><g id="Livello_2" data-name="Livello 2"><g id="Layer_1" data-name="Layer 1"><path class="cls-1" d="M109.65,91.21q-9.34-13.35-9.35-38.86,0-25.66,9.35-39T136.84,0Q154.67,0,164,13.27t9.35,38.93q0,25.67-9.35,39t-27.19,13.33Q119,104.54,109.65,91.21Zm43.57-8.42q5.22-9.71,5.22-30.59t-5.22-30.52Q148,12,136.84,12t-16.39,9.64q-5.22,9.65-5.22,30.52t5.22,30.52q5.22,9.8,16.39,9.79T153.22,82.79Z"/><path class="cls-2" d="M248,85.87c13.39,6.94,21.16,15.22,21.16,24.11,0,24.54-59.25,44.43-132.34,44.43S4.5,134.52,4.5,110c0-8.89,7.77-17.17,21.15-24.11"/></g></g></svg>