<svg xmlns="http://www.w3.org/2000/svg" viewBox="0 0 273.68 158.55"><defs><style>.cls-1{fill:#3ea2d1;}.cls-2{fill:none;stroke:#3ea2d1;stroke-linecap:round;stroke-miterlimit:10;stroke-width:9px;}</style></defs><g id="Livello_2" data-name="Livello 2"><g id="Layer_1" data-name="Layer 1"><path class="cls-1" d="M124.08,92.66a5.78,5.78,0,0,1,1.74,4.49q0,6.24-7,6.23H70.43q-7.11,0-7.11-6.23a5.66,5.66,0,0,1,1.82-4.49,7.73,7.73,0,0,1,5.29-1.6H87.1V18.71L72.17,28.13a5.62,5.62,0,0,1-2.9.87A5.42,5.42,0,0,1,65,26.83a7.5,7.5,0,0,1-1.81-4.94,5.87,5.87,0,0,1,2.9-5.21L88.41,2.46a12.32,12.32,0,0,1,6.38-2,7.09,7.09,0,0,1,5.22,2A7.48,7.48,0,0,1,102,8V91.06h16.82A7.46,7.46,0,0,1,124.08,92.66Z"/><path class="cls-1" d="M205.57,60.18a26.1,26.1,0,0,1,4.93,15.94q0,13.35-9.79,20.81t-27.62,7.47q-17.84,0-27.62-7.47t-9.79-20.81a26.09,26.09,0,0,1,5-16.09,25.23,25.23,0,0,1,14-9.14,25.33,25.33,0,0,1-12.1-9.13,24.4,24.4,0,0,1-4.43-14.5q0-12.61,9.28-19.94T173.09,0q16.38,0,25.66,7.32T208,27.26a24.72,24.72,0,0,1-4.42,14.57,24.43,24.43,0,0,1-12,9.06A25.55,25.55,0,0,1,205.57,60.18Zm-9.43,14.93q0-17.4-23-17.4T150,75.11q0,17.27,23.06,17.26T196.14,75.11Zm-38.42-58.8q-5.22,4.29-5.22,12.26,0,8.26,5.22,12.61t15.37,4.35q10.14,0,15.37-4.35t5.22-12.61q0-8-5.22-12.26T173.09,12Q162.94,12,157.72,16.31Z"/><path class="cls-2" d="M248,85.51c13.39,6.94,21.16,15.22,21.16,24.1,0,24.54-59.25,44.44-132.34,44.44S4.5,134.15,4.5,109.61c0-8.88,7.77-17.16,21.15-24.1"/></g></g></svg>