<svg xmlns="http://www.w3.org/2000/svg" viewBox="0 0 273.68 158.33"><defs><style>.cls-1{fill:#3ea2d1;}.cls-2{fill:none;stroke:#3ea2d1;stroke-linecap:round;stroke-miterlimit:10;stroke-width:9px;}</style></defs><g id="Livello_2" data-name="Livello 2"><g id="Layer_1" data-name="Layer 1"><path class="cls-1" d="M124.51,92.66a5.78,5.78,0,0,1,1.74,4.49q0,6.24-7,6.23H70.86q-7.1,0-7.1-6.23a5.65,5.65,0,0,1,1.81-4.49,7.75,7.75,0,0,1,5.29-1.6H87.54V18.71L72.6,28.13a5.57,5.57,0,0,1-2.9.87,5.4,5.4,0,0,1-4.27-2.17,7.51,7.51,0,0,1-1.82-4.94,5.9,5.9,0,0,1,2.9-5.21L88.84,2.46a12.35,12.35,0,0,1,6.38-2,7.06,7.06,0,0,1,5.22,2,7.44,7.44,0,0,1,2,5.51V91.06h16.82A7.46,7.46,0,0,1,124.51,92.66Z"/><path class="cls-1" d="M208.25,92.66a5.65,5.65,0,0,1,1.81,4.49q0,6.24-7.1,6.23H147a6.73,6.73,0,0,1-5-1.81A6.17,6.17,0,0,1,140.17,97a8.65,8.65,0,0,1,2.61-6.09l34.08-37.27a61.41,61.41,0,0,0,9.86-13.48,26.74,26.74,0,0,0,3-12q0-7.68-4.42-11.82T172.8,12.18q-12.33,0-24.51,9.43a25.19,25.19,0,0,1-2.68,1.52,5.2,5.2,0,0,1-2.25.5,4.28,4.28,0,0,1-3.48-1.88,7.17,7.17,0,0,1-1.45-4.49,6.89,6.89,0,0,1,2.9-5.8A46.73,46.73,0,0,1,156,3.12,50,50,0,0,1,173.23,0q14.36,0,22.84,7.32t8.48,19.8a38.32,38.32,0,0,1-3.84,16.82q-3.84,8-12.83,17.83L160.47,91.06H203A7.75,7.75,0,0,1,208.25,92.66Z"/><path class="cls-2" d="M248,85.29c13.39,6.94,21.16,15.22,21.16,24.11,0,24.54-59.25,44.43-132.34,44.43S4.5,133.94,4.5,109.4c0-8.89,7.77-17.17,21.15-24.11"/></g></g></svg>