<svg xmlns="http://www.w3.org/2000/svg" viewBox="0 0 273.68 158.62"><defs><style>.cls-1{fill:#3ea2d1;}.cls-2{fill:none;stroke:#3ea2d1;stroke-linecap:round;stroke-miterlimit:10;stroke-width:9px;}</style></defs><g id="Livello_2" data-name="Livello 2"><g id="Layer_1" data-name="Layer 1"><path class="cls-1" d="M158,42.7a28.74,28.74,0,0,1,11.24,11.53,35.29,35.29,0,0,1,4,17,34,34,0,0,1-4.35,17.18,31.05,31.05,0,0,1-12,11.89,34.76,34.76,0,0,1-17.33,4.27q-19,0-29.21-13t-10.23-37q0-17,4.79-29.22T118.71,6.53A35.33,35.33,0,0,1,140,0a47.76,47.76,0,0,1,16.53,3,41.65,41.65,0,0,1,14.06,8.42,7.38,7.38,0,0,1,2.9,5.8,6.83,6.83,0,0,1-1.45,4.42,4.31,4.31,0,0,1-3.48,1.81,6.2,6.2,0,0,1-2.39-.44,13.05,13.05,0,0,1-2.54-1.44q-12.18-9.43-23.2-9.43-12,0-18.7,11.09t-6.67,31v.29a24.68,24.68,0,0,1,10.37-11.67,31,31,0,0,1,16.16-4.28A32.58,32.58,0,0,1,158,42.7ZM153.3,86.64q5.43-5.73,5.43-15.15t-5.43-15q-5.45-5.73-14.43-5.73-9.13,0-14.86,5.73t-5.73,15q0,9.42,5.65,15.15t14.94,5.73Q147.86,92.37,153.3,86.64Z"/><path class="cls-2" d="M248,85.58c13.39,6.94,21.16,15.22,21.16,24.11,0,24.54-59.25,44.43-132.34,44.43S4.5,134.23,4.5,109.69c0-8.89,7.77-17.17,21.15-24.11"/></g></g></svg>