<svg width="22" height="12" viewBox="0 0 22 12" fill="none" xmlns="http://www.w3.org/2000/svg">
<path d="M7.91538 4.81451C7.35883 4.17614 6.48727 3.85891 5.63964 3.86837C4.792 3.87783 3.96997 4.18282 3.24645 4.62417C2.26024 5.22525 1.40982 6.12687 1.10538 7.23998C0.800949 8.35309 1.16104 9.68158 2.12165 10.3177C2.84517 10.7941 3.75291 10.8515 4.6178 10.8704C7.06664 10.926 9.51548 10.8787 11.9643 10.8565C13.1887 10.8453 14.4132 10.8398 15.6376 10.8565C16.7952 10.8709 17.8922 10.9394 19.0097 10.5582C19.391 10.4279 19.7644 10.2582 20.08 10.0072C20.3745 9.76739 20.6103 9.46359 20.7697 9.11889C20.929 8.77419 21.0076 8.39769 20.9994 8.01804C20.9863 7.6388 20.8867 7.26756 20.7084 6.9326C20.5301 6.59764 20.2776 6.30779 19.9704 6.08513C19.5045 5.75119 18.9374 5.59425 18.3736 5.49407C17.2794 5.30039 16.1012 5.38832 15.1506 5.98884" stroke="#104190" stroke-miterlimit="10" stroke-linecap="round"/>
<path d="M6.72546 3.874C7.16231 2.93762 7.88276 2.16246 8.78472 1.65836C10.7054 0.591444 13.5605 0.832988 15.2179 2.29784C16.0528 3.03694 16.6561 4.07325 16.7418 5.1858" stroke="#104190" stroke-miterlimit="10" stroke-linecap="round"/>
</svg>
