<svg width="25" height="21" viewBox="0 0 25 21" fill="none" xmlns="http://www.w3.org/2000/svg">
<path d="M24 17.7273C24 18.2818 23.7797 18.8136 23.3876 19.2058C22.9955 19.5979 22.4636 19.8182 21.9091 19.8182H3.09091C2.53637 19.8182 2.00453 19.5979 1.61241 19.2058C1.22029 18.8136 1 18.2818 1 17.7273V6.22727C1 5.67273 1.22029 5.1409 1.61241 4.74878C2.00453 4.35665 2.53637 4.13636 3.09091 4.13636H7.27273L9.36364 1H15.6364L17.7273 4.13636H21.9091C22.4636 4.13636 22.9955 4.35665 23.3876 4.74878C23.7797 5.1409 24 5.67273 24 6.22727V17.7273Z" stroke="white" stroke-width="2" stroke-linecap="round" stroke-linejoin="round"/>
<path d="M12.5002 15.6371C14.8097 15.6371 16.682 13.7648 16.682 11.4553C16.682 9.1457 14.8097 7.27344 12.5002 7.27344C10.1906 7.27344 8.31836 9.1457 8.31836 11.4553C8.31836 13.7648 10.1906 15.6371 12.5002 15.6371Z" stroke="white" stroke-width="2" stroke-linecap="round" stroke-linejoin="round"/>
</svg>
