<svg width="22" height="16" viewBox="0 0 22 16" fill="none" xmlns="http://www.w3.org/2000/svg">
<path d="M10.8303 9.91932C11.9163 9.91932 12.7968 9.03889 12.7968 7.95283C12.7968 6.86676 11.9163 5.98633 10.8303 5.98633C9.7442 5.98633 8.86377 6.86676 8.86377 7.95283C8.86377 9.03889 9.7442 9.91932 10.8303 9.91932Z" stroke="#104190" stroke-linecap="round" stroke-linejoin="round"/>
<path d="M14.9994 3.78259C15.5479 4.3305 15.983 4.98114 16.2799 5.69733C16.5768 6.41352 16.7296 7.1812 16.7296 7.95648C16.7296 8.73177 16.5768 9.49945 16.2799 10.2156C15.983 10.9318 15.5479 11.5825 14.9994 12.1304M6.66141 12.1205C6.1129 11.5726 5.67776 10.922 5.38087 10.2058C5.08398 9.48962 4.93117 8.72194 4.93117 7.94665C4.93117 7.17137 5.08398 6.40369 5.38087 5.6875C5.67776 4.97131 6.1129 4.32067 6.66141 3.77276M17.782 1C19.6253 2.84386 20.6608 5.34435 20.6608 7.95157C20.6608 10.5588 19.6253 13.0593 17.782 14.9031M3.87882 14.9031C2.03551 13.0593 1 10.5588 1 7.95157C1 5.34435 2.03551 2.84386 3.87882 1" stroke="#104190" stroke-linecap="round" stroke-linejoin="round"/>
</svg>
