<svg width="19" height="19" viewBox="0 0 19 19" fill="none" xmlns="http://www.w3.org/2000/svg">
<path d="M12.3333 15.5034C11.7337 16.2852 10.9799 16.9146 10.1264 17.3464C9.27281 17.7781 8.34068 18.0014 7.39703 18.0003C5.70044 18.0003 4.07334 17.2771 2.87367 15.9899C1.674 14.7027 1.00001 12.9569 1.00001 11.1366C0.998803 10.1288 1.20492 9.13309 1.60358 8.22056C2.00224 7.30803 2.58362 6.50114 3.30633 5.85742L12.3333 15.5034Z" stroke="#104190" stroke-miterlimit="10" stroke-linecap="round" stroke-linejoin="round"/>
<path d="M8.28564 10.7143L9.49993 9.5" stroke="#104190" stroke-miterlimit="10" stroke-linecap="round" stroke-linejoin="round"/>
<path d="M11.119 9.90504C12.2367 9.90504 13.1428 8.99895 13.1428 7.88123C13.1428 6.76351 12.2367 5.85742 11.119 5.85742C10.0013 5.85742 9.09521 6.76351 9.09521 7.88123C9.09521 8.99895 10.0013 9.90504 11.119 9.90504Z" stroke="#104190" stroke-miterlimit="10" stroke-linecap="round" stroke-linejoin="round"/>
<path d="M10.7144 3.42773C12.0025 3.42773 13.238 3.93947 14.1489 4.85036C15.0598 5.76125 15.5715 6.99668 15.5715 8.28488" stroke="#104190" stroke-miterlimit="10" stroke-linecap="round" stroke-linejoin="round"/>
<path d="M10.7144 1C12.6469 1.00057 14.5001 1.76844 15.8664 3.13473C17.2327 4.50101 18.0002 6.35384 18.0001 8.28571" stroke="#104190" stroke-miterlimit="10" stroke-linecap="round" stroke-linejoin="round"/>
</svg>
