<svg width="11" height="19" viewBox="0 0 11 19" fill="none" xmlns="http://www.w3.org/2000/svg">
<path d="M9.97182 1.10249C9.95365 1.07137 9.92725 1.04547 9.89532 1.02746C9.86339 1.00945 9.82709 0.999975 9.79013 1H5.29333C5.25381 1.00003 5.21512 1.01089 5.18172 1.03132C5.14833 1.05175 5.1216 1.08092 5.10465 1.11544L1.02015 9.41272C1.00504 9.4436 0.998238 9.47768 1.00039 9.51178C1.00254 9.54588 1.01357 9.5789 1.03245 9.60778C1.05133 9.63665 1.07745 9.66045 1.10839 9.67695C1.13933 9.69345 1.17408 9.70212 1.20941 9.70215H3.67095L1.87094 17.7545C1.86076 17.8013 1.86788 17.85 1.89109 17.8922C1.91429 17.9344 1.95209 17.9674 1.99789 17.9854C2.02274 17.9949 2.0492 17.9998 2.07593 18C2.11204 18 2.14755 17.9911 2.17906 17.974C2.21057 17.957 2.23701 17.9324 2.25587 17.9026L9.34231 6.77234C9.36174 6.74166 9.37239 6.70653 9.37314 6.67055C9.37388 6.63458 9.36472 6.59906 9.34658 6.56765C9.32844 6.53623 9.30197 6.51005 9.2699 6.4918C9.23784 6.47354 9.20132 6.46387 9.16411 6.46376H6.81032L9.97182 1.3052C9.99028 1.2744 10 1.23944 10 1.20384C10 1.16825 9.99028 1.13329 9.97182 1.10249V1.10249Z" stroke="#ADADAD" stroke-linecap="round" stroke-linejoin="round"/>
</svg>
