<svg width="22" height="22" viewBox="0 0 22 22" fill="none" xmlns="http://www.w3.org/2000/svg">
<path d="M13.8571 2.42847L11 5.28561" stroke="#ADADAD" stroke-linecap="round" stroke-linejoin="round"/>
<path d="M8.14282 2.42847L11 5.28561" stroke="#ADADAD" stroke-linecap="round" stroke-linejoin="round"/>
<path d="M8.14282 19.5713L11 17.4285" stroke="#ADADAD" stroke-linecap="round" stroke-linejoin="round"/>
<path d="M13.8571 19.5713L11 17.4285" stroke="#ADADAD" stroke-linecap="round" stroke-linejoin="round"/>
<path d="M19.5714 13.8571L17.4286 11" stroke="#ADADAD" stroke-linecap="round" stroke-linejoin="round"/>
<path d="M19.5714 8.14282L17.4286 11" stroke="#ADADAD" stroke-linecap="round" stroke-linejoin="round"/>
<path d="M2.42859 8.14282L4.57145 11" stroke="#ADADAD" stroke-linecap="round" stroke-linejoin="round"/>
<path d="M2.42859 13.8571L4.57145 11" stroke="#ADADAD" stroke-linecap="round" stroke-linejoin="round"/>
<path d="M18.1429 3.85718L3.85718 18.1429L18.1429 3.85718Z" stroke="#ADADAD" stroke-linecap="round" stroke-linejoin="round"/>
<path d="M18.8572 6.71436H15.2858" stroke="#ADADAD" stroke-linecap="round" stroke-linejoin="round"/>
<path d="M15.2858 3.14282V6.71425" stroke="#ADADAD" stroke-linecap="round" stroke-linejoin="round"/>
<path d="M3.14282 15.2856H6.71425" stroke="#ADADAD" stroke-linecap="round" stroke-linejoin="round"/>
<path d="M6.71423 18.8571V16" stroke="#ADADAD" stroke-linecap="round" stroke-linejoin="round"/>
<path d="M18.1429 18.1429L3.85718 3.85718L18.1429 18.1429Z" stroke="#ADADAD" stroke-linecap="round" stroke-linejoin="round"/>
<path d="M15.2858 18.8571V16" stroke="#ADADAD" stroke-linecap="round" stroke-linejoin="round"/>
<path d="M18.8572 15.2856H15.2858" stroke="#ADADAD" stroke-linecap="round" stroke-linejoin="round"/>
<path d="M6.71423 3.14282V6.71425" stroke="#ADADAD" stroke-linecap="round" stroke-linejoin="round"/>
<path d="M3.14282 6.71436H6.71425" stroke="#ADADAD" stroke-linecap="round" stroke-linejoin="round"/>
<path d="M11 1V21" stroke="#ADADAD" stroke-linecap="round" stroke-linejoin="round"/>
<path d="M1 11H21" stroke="#ADADAD" stroke-linecap="round" stroke-linejoin="round"/>
</svg>
