<svg width="27" height="18" viewBox="0 0 27 18" fill="none" xmlns="http://www.w3.org/2000/svg">
<path d="M13.0688 6.17241V1" stroke="#ADADAD" stroke-linecap="round" stroke-linejoin="round"/>
<path d="M19.9656 12.207H24.2759" stroke="#ADADAD" stroke-linecap="round" stroke-linejoin="round"/>
<path d="M6.1724 12.207H2.72412" stroke="#ADADAD" stroke-linecap="round" stroke-linejoin="round"/>
<path d="M5.3103 5.3103L7.89651 7.89651" stroke="#ADADAD" stroke-linecap="round" stroke-linejoin="round"/>
<path d="M19.5626 14.7931C19.9349 13.8198 20.0515 12.777 19.9026 11.7528C19.7538 10.7285 19.3438 9.7527 18.7072 8.90761C18.0706 8.06252 17.2261 7.3729 16.2449 6.89687C15.2636 6.42085 14.1744 6.17236 13.0689 6.17236C11.9635 6.17236 10.8742 6.42085 9.89297 6.89687C8.91171 7.3729 8.06722 8.06252 7.43064 8.90761C6.79406 9.7527 6.38405 10.7285 6.23519 11.7528C6.08632 12.777 6.20294 13.8198 6.57524 14.7931" stroke="#ADADAD" stroke-linecap="round" stroke-linejoin="round"/>
<path d="M20.8275 5.3103L18.2413 7.89651" stroke="#ADADAD" stroke-linecap="round" stroke-linejoin="round"/>
<path d="M11.3448 2.72414L13.069 1" stroke="#ADADAD" stroke-linecap="round" stroke-linejoin="round"/>
<path d="M13.0688 0.999983L14.793 2.72412" stroke="#ADADAD" stroke-linecap="round" stroke-linejoin="round"/>
<path d="M4.44836 16.5173H21.6897" stroke="#ADADAD" stroke-linecap="round" stroke-linejoin="round"/>
<path d="M1 14.7932H26" stroke="#ADADAD" stroke-linecap="round" stroke-linejoin="round"/>
</svg>
