<svg width="19" height="23" viewBox="0 0 19 23" fill="none" xmlns="http://www.w3.org/2000/svg">
<path d="M16.494 10.7256C17.3257 10.7256 17.9999 9.44387 17.9999 7.86279C17.9999 6.28172 17.3257 5 16.494 5C15.6623 5 14.988 6.28172 14.988 7.86279C14.988 9.44387 15.6623 10.7256 16.494 10.7256Z" stroke="#ADADAD" stroke-linecap="round" stroke-linejoin="round"/>
<path d="M1 3.23853L16.4941 4.99959" stroke="#ADADAD" stroke-linecap="round" stroke-linejoin="round"/>
<path d="M16.4941 10.7917L1 12.5528" stroke="#ADADAD" stroke-linecap="round" stroke-linejoin="round"/>
<path d="M5.9399 11.9507C4.14068 9.55645 4.0587 6.85549 5.9399 3.80542" stroke="#ADADAD" stroke-linecap="round" stroke-linejoin="round"/>
<path d="M8.36718 11.6725C6.82165 9.43085 6.76088 6.92423 8.3799 4.11938" stroke="#ADADAD" stroke-linecap="round" stroke-linejoin="round"/>
<path d="M10.8129 11.402C9.48718 9.2982 9.45114 6.96472 10.8624 4.37329" stroke="#ADADAD" stroke-linecap="round" stroke-linejoin="round"/>
<path d="M13.2906 11.1559C12.1556 9.18987 12.1323 7.02599 13.3471 4.64233" stroke="#ADADAD" stroke-linecap="round" stroke-linejoin="round"/>
<path d="M1 1V22.4738V1Z" stroke="#ADADAD" stroke-linecap="round" stroke-linejoin="round"/>
</svg>
