<svg width="15" height="18" viewBox="0 0 15 18" fill="none" xmlns="http://www.w3.org/2000/svg">
<path d="M7.5 14C11.0899 14 14 11.0899 14 7.5C14 3.91015 11.0899 1 7.5 1C3.91015 1 1 3.91015 1 7.5C1 11.0899 3.91015 14 7.5 14Z" stroke="#ADADAD" stroke-linecap="round" stroke-linejoin="round"/>
<path d="M7.49998 9.69894C8.7145 9.69894 9.69906 8.71438 9.69906 7.49986C9.69906 6.28534 8.7145 5.30078 7.49998 5.30078C6.28546 5.30078 5.3009 6.28534 5.3009 7.49986C5.3009 8.71438 6.28546 9.69894 7.49998 9.69894Z" stroke="#ADADAD" stroke-linecap="round" stroke-linejoin="round"/>
<path d="M10.375 5.18677C10.6851 5.18677 10.9365 4.93537 10.9365 4.62524C10.9365 4.31512 10.6851 4.06372 10.375 4.06372C10.0649 4.06372 9.81348 4.31512 9.81348 4.62524C9.81348 4.93537 10.0649 5.18677 10.375 5.18677Z" fill="#ADADAD"/>
<path d="M9.77295 13.5916C10.2921 13.9559 10.7157 14.4401 11.008 15.0029C11.3003 15.5658 11.4527 16.1908 11.4522 16.825H3.5481C3.5476 16.1908 3.69996 15.5658 3.99227 15.0029C4.28457 14.4401 4.70823 13.9559 5.22734 13.5916" stroke="#ADADAD" stroke-linecap="round" stroke-linejoin="round"/>
</svg>
