<svg xmlns="http://www.w3.org/2000/svg" viewBox="0 0 295.06 251.05"><defs><style>.cls-1,.cls-2{fill:none;stroke:#3ea2d1;stroke-linecap:round;stroke-width:10px;}.cls-1{stroke-miterlimit:10;}.cls-2{stroke-linejoin:round;}.cls-3{fill:#3ea2d1;}</style></defs><g id="Livello_2" data-name="Livello 2"><g id="Layer_1" data-name="Layer 1"><path class="cls-1" d="M85.17,47.84a47.24,47.24,0,0,0-14-2C59.07,46,47.32,50.34,37,56.63,23,65.2,10.8,78,6.49,93.92s.76,34.8,14.49,43.86c10.29,6.8,23.24,7.62,35.57,7.88,34.89.76,69.79.12,104.68-.2,17.44-.16,34.89-.24,52.33,0,16.5.21,32.13,1.19,48.05-4.24a50.49,50.49,0,0,0,15.26-7.86,35,35,0,0,0-1.49-55.84c-6.64-4.73-14.72-7-22.76-8.42a78.24,78.24,0,0,0-23.26-.79"/><path class="cls-1" d="M86.62,46A70.16,70.16,0,0,1,116,14.38C143.34-.82,184,2.62,207.65,23.5,219.56,34,228.14,48.79,229.36,64.65"/><path class="cls-2" d="M34.37,246.05l47.15-69.56Z"/><path class="cls-2" d="M85.18,246.05l47.16-69.56Z"/><path class="cls-2" d="M136,246.05l47.16-69.56Z"/><path class="cls-2" d="M186.81,246.05,234,176.49Z"/><path class="cls-3" d="M156.6,119.09q0,4.56-5.16,4.56H122.37c-3.5,0-5.24-1.52-5.24-4.56s1.74-4.38,5.24-4.38h8.95V75.49l-8.26,5.07a4.43,4.43,0,0,1-2.15.69,3.77,3.77,0,0,1-3-1.55,5.29,5.29,0,0,1-1.25-3.44,4.31,4.31,0,0,1,2.24-3.87l13.33-8.25a9.59,9.59,0,0,1,4.9-1.55A5.27,5.27,0,0,1,141,64.05a5.48,5.48,0,0,1,1.46,4v46.62h9Q156.6,114.71,156.6,119.09Z"/><path class="cls-3" d="M183.6,80V92.3a2.93,2.93,0,0,1-.83,2.21,3.15,3.15,0,0,1-2.28.8,3.26,3.26,0,0,1-2.31-.8,2.87,2.87,0,0,1-.85-2.21V80a5.81,5.81,0,0,0-1.08-3.89,4.31,4.31,0,0,0-3.38-1.22,5.73,5.73,0,0,0-4.34,1.7,6.32,6.32,0,0,0-1.63,4.56V92.3a2.87,2.87,0,0,1-.85,2.21,3.26,3.26,0,0,1-2.31.8,3.15,3.15,0,0,1-2.28-.8,2.93,2.93,0,0,1-.83-2.21v-30a2.68,2.68,0,0,1,.88-2.1,3.21,3.21,0,0,1,2.28-.81,3.25,3.25,0,0,1,2.26.76,2.58,2.58,0,0,1,.85,2V73.9a8.26,8.26,0,0,1,3.33-3,10.65,10.65,0,0,1,4.74-1Q183.6,69.89,183.6,80Z"/></g></g></svg>