<svg xmlns="http://www.w3.org/2000/svg" viewBox="0 0 295.06 251.05"><defs><style>.cls-1,.cls-2{fill:none;stroke:#3ea2d1;stroke-linecap:round;stroke-width:10px;}.cls-1{stroke-miterlimit:10;}.cls-2{stroke-linejoin:round;}.cls-3{fill:#3ea2d1;}</style></defs><g id="Livello_2" data-name="Livello 2"><g id="Layer_1" data-name="Layer 1"><path class="cls-1" d="M85.17,47.84a47.24,47.24,0,0,0-14-2C59.07,46,47.32,50.34,37,56.63,23,65.2,10.8,78,6.49,93.92s.76,34.8,14.49,43.86c10.29,6.8,23.24,7.62,35.57,7.88,34.89.76,69.79.12,104.68-.2,17.44-.16,34.89-.24,52.33,0,16.5.21,32.13,1.19,48.05-4.24a50.49,50.49,0,0,0,15.26-7.86,35,35,0,0,0-1.49-55.84c-6.64-4.73-14.72-7-22.76-8.42a78.24,78.24,0,0,0-23.26-.79"/><path class="cls-1" d="M86.62,46A70.16,70.16,0,0,1,116,14.38C143.34-.82,184,2.62,207.65,23.5,219.56,34,228.14,48.79,229.36,64.65"/><path class="cls-2" d="M34.37,246.05l47.15-69.56Z"/><path class="cls-2" d="M85.18,246.05l47.16-69.56Z"/><path class="cls-2" d="M136,246.05l47.16-69.56Z"/><path class="cls-2" d="M186.81,246.05,234,176.49Z"/><path class="cls-3" d="M124.87,119.09q0,4.56-5.16,4.56H90.64c-3.5,0-5.24-1.52-5.24-4.56s1.74-4.38,5.24-4.38h9V75.49l-8.26,5.07a4.43,4.43,0,0,1-2.15.69,3.77,3.77,0,0,1-3.05-1.55,5.34,5.34,0,0,1-1.25-3.44,4.31,4.31,0,0,1,2.24-3.87l13.33-8.25a9.59,9.59,0,0,1,4.9-1.55,5.27,5.27,0,0,1,3.87,1.46,5.48,5.48,0,0,1,1.46,4v46.62h9Q124.87,114.71,124.87,119.09Z"/><path class="cls-3" d="M135,116.47q-5.69-7.95-5.68-23.18T135,70.2q5.67-7.95,16.42-8t16.43,8q5.67,8,5.68,23.09t-5.68,23.14q-5.67,8-16.43,8T135,116.47ZM160,110.36q2.65-5.37,2.66-17.07T160,76.22a9.48,9.48,0,0,0-17,0q-2.67,5.34-2.67,17t2.67,17.07a9.43,9.43,0,0,0,17,0Z"/><path class="cls-3" d="M213.19,72.27c1.42,1.59,2.14,4.16,2.14,7.7V92.3a2.86,2.86,0,0,1-.88,2.24,3.36,3.36,0,0,1-2.28.77,3.25,3.25,0,0,1-2.23-.77,2.83,2.83,0,0,1-.88-2.24V80a6.23,6.23,0,0,0-1-3.94,3.67,3.67,0,0,0-3-1.17,4.91,4.91,0,0,0-3.91,1.68,6.77,6.77,0,0,0-1.46,4.58V92.3a2.83,2.83,0,0,1-.88,2.24,3.25,3.25,0,0,1-2.23.77,3.36,3.36,0,0,1-2.25-.77,2.81,2.81,0,0,1-.9-2.24V80a6.23,6.23,0,0,0-1-3.94,3.68,3.68,0,0,0-3-1.17,4.83,4.83,0,0,0-3.88,1.68,6.86,6.86,0,0,0-1.43,4.58V92.3a2.81,2.81,0,0,1-.9,2.24,3.38,3.38,0,0,1-2.26.77,3.27,3.27,0,0,1-2.23-.77,2.83,2.83,0,0,1-.88-2.24V72.9a2.65,2.65,0,0,1,.9-2.15,3.4,3.4,0,0,1,2.26-.76,3.13,3.13,0,0,1,2.13.73A2.64,2.64,0,0,1,184,72.8V74a7.92,7.92,0,0,1,3.08-3,9.05,9.05,0,0,1,4.44-1.06c3.68,0,6.13,1.54,7.37,4.62a8.23,8.23,0,0,1,3.26-3.36,9.47,9.47,0,0,1,4.86-1.26A7.82,7.82,0,0,1,213.19,72.27Z"/></g></g></svg>