<svg xmlns="http://www.w3.org/2000/svg" viewBox="0 0 270.38 288.73"><defs><style>.cls-1{fill:none;stroke:#3ea2d1;stroke-linecap:round;stroke-miterlimit:10;stroke-width:10px;}</style></defs><g id="Livello_2" data-name="Livello 2"><g id="Layer_1" data-name="Layer 1"><path class="cls-1" d="M205.55,204.45c33,0,59.83-22.93,59.83-51.11,0-27.15-60.27-142.13-62.84-147a2.49,2.49,0,0,0-4.49.15c-2.14,4.88-52.34,119.79-52.34,146.85C145.71,181.52,172.55,204.45,205.55,204.45Z"/><path class="cls-1" d="M247.06,190.12A122.73,122.73,0,1,1,179.83,49.73"/><path class="cls-1" d="M193,203.32A77.77,77.77,0,1,1,163.36,91.79"/><path class="cls-1" d="M153.19,178.06A30.63,30.63,0,1,1,147,137.14"/></g></g></svg>