<svg width="14" height="23" viewBox="0 0 14 23" fill="none" xmlns="http://www.w3.org/2000/svg">
<path d="M6.9985 22C10.3071 22 13 19.5859 13 16.6185C13 13.7595 6.95589 1.65431 6.69843 1.14011C6.67671 1.09629 6.64356 1.05986 6.60286 1.03509C6.56215 1.01032 6.51557 0.998221 6.46857 1.00021C6.4215 1.00189 6.37584 1.01751 6.33687 1.04528C6.29789 1.07304 6.26719 1.11181 6.24831 1.15712C6.03406 1.67069 1 13.769 1 16.6185C0.9988 19.5859 3.69047 22 6.9985 22Z" stroke="#104190" stroke-linecap="round" stroke-linejoin="round"/>
<path d="M10 14L7 11" stroke="#104190" stroke-linecap="round" stroke-linejoin="round"/>
<path d="M4 13.7911L7 11V19" stroke="#104190" stroke-linecap="round" stroke-linejoin="round"/>
</svg>
