<svg width="18" height="21" viewBox="0 0 18 21" fill="none" xmlns="http://www.w3.org/2000/svg">
<path d="M8.21921 9.93134V2.60714C8.21878 2.18103 8.04891 1.7725 7.74688 1.4712C7.44485 1.16989 7.03532 1.00043 6.60818 1H6.10339C5.67625 1.00043 5.26673 1.16989 4.9647 1.4712C4.66267 1.7725 4.49279 2.18103 4.49236 2.60714V9.93134C3.46666 10.3103 2.58201 10.9937 1.95758 11.8895C1.33316 12.7854 0.998956 13.8506 1 14.9417C1.00158 16.3586 1.56647 17.7169 2.57074 18.7188C3.575 19.7206 4.93662 20.2841 6.35687 20.2857C7.77716 20.2841 9.13885 19.7206 10.1432 18.7188C11.1476 17.717 11.7126 16.3586 11.7143 14.9417C11.715 13.8503 11.3804 12.7849 10.7555 11.889C10.1306 10.9931 9.24538 10.3099 8.21921 9.93134Z" stroke="#104190" stroke-miterlimit="10" stroke-linecap="round"/>
<path d="M6.77861 11.3527V11.7493L7.16474 11.8396C7.91529 12.0151 8.58024 12.4295 9.05447 13.0127C9.52832 13.5955 9.78484 14.3134 9.78585 15.0511C9.78514 15.9231 9.42753 16.7624 8.78633 17.3836C8.14451 18.0055 7.27109 18.3574 6.35728 18.3574C5.44348 18.3574 4.57005 18.0055 3.92824 17.3836C3.28704 16.7624 2.92943 15.9231 2.92871 15.0511C2.92945 14.3139 3.18538 13.5964 3.65844 13.0136C4.13184 12.4305 4.79583 12.0158 5.54559 11.8394L5.93111 11.7488V11.3527V4.75361C5.93117 4.65366 5.97199 4.55458 6.04987 4.47903C6.12814 4.4031 6.23744 4.3577 6.35459 4.35742C6.47184 4.3577 6.58124 4.40312 6.65961 4.4791L6.99931 4.12874L6.65961 4.4791C6.73751 4.55463 6.77841 4.65366 6.77861 4.75361C6.77861 4.75371 6.77861 4.75381 6.77861 4.75391L6.77861 11.3527Z" stroke="#104190" stroke-miterlimit="10" stroke-linecap="round"/>
<path d="M10.3827 3.85854C10.3828 3.47963 10.5358 3.11628 10.808 2.84835C11.0803 2.58042 11.4495 2.42984 11.8345 2.42969C12.2194 2.42984 12.5885 2.58044 12.8607 2.84839C13.1328 3.11633 13.2857 3.47968 13.2857 3.85854C13.2857 4.23734 13.1328 4.60064 12.8607 4.86849C12.5885 5.13635 12.2194 5.28683 11.8345 5.28683H8.5" stroke="#104190" stroke-miterlimit="10" stroke-linecap="round"/>
<path d="M14.1112 5.28571C14.1113 4.90686 14.2561 4.54357 14.5136 4.27573C14.7711 4.00788 15.1203 3.85742 15.4844 3.85742C15.8485 3.85742 16.1976 4.0079 16.4551 4.27576C16.7125 4.54362 16.8571 4.90691 16.8571 5.28571C16.8571 5.66457 16.7125 6.02792 16.4551 6.29587C16.1977 6.56381 15.8485 6.71442 15.4844 6.71456H8.5" stroke="#104190" stroke-miterlimit="10" stroke-linecap="round"/>
<path d="M11.8633 9.57031C11.8633 9.94922 12.0134 10.3126 12.2806 10.5807C12.5479 10.8487 12.9104 10.9994 13.2885 10.9997C13.4758 10.9997 13.6612 10.9627 13.8342 10.8909C14.0073 10.8191 14.1645 10.7138 14.2969 10.581C14.4293 10.4483 14.5343 10.2907 14.6059 10.1173C14.6775 9.94386 14.7143 9.758 14.7143 9.57031C14.714 9.19155 14.5636 8.8284 14.2963 8.56068C14.0289 8.29296 13.6664 8.14258 13.2885 8.14258L8.5 8.14258" stroke="#104190" stroke-miterlimit="10" stroke-linecap="round"/>
</svg>
